<?xml version="1.0" encoding="utf-8"?>
<!-- Generator: Adobe Illustrator 24.0.2, SVG Export Plug-In . SVG Version: 6.00 Build 0)  -->
<svg version="1.1" id="Capa_1" xmlns="http://www.w3.org/2000/svg" xmlns:xlink="http://www.w3.org/1999/xlink" x="0px" y="0px"
	 viewBox="0 0 436.7 436.7" style="enable-background:new 0 0 436.7 436.7;" xml:space="preserve">
<style type="text/css">
	.st0{fill:#5A1421;}
</style>
<g>
	<path class="st0" d="M427.8,194.3c11.9,11.9,11.9,31.3,0,43.2L240,425.4c-6,6-13.8,8.9-21.6,8.9s-15.7-3-21.6-8.9L9,237.6
		c-12-12-12-31.3,0-43.3c11.9-11.9,31.3-11.9,43.2,0l166.2,166.2l166.2-166.2C396.4,182.4,415.8,182.4,427.8,194.3z M196.7,242.4
		c6,6,13.8,8.9,21.6,8.9s15.7-3,21.6-8.9L427.8,54.6c11.9-11.9,11.9-31.3,0-43.3c-11.9-11.9-31.3-11.9-43.2,0L218.4,177.5L52.2,11.4
		c-11.9-12-31.3-12-43.2,0C-3,23.3-3,42.7,9,54.6L196.7,242.4z"/>
</g>
</svg>
