<?xml version="1.0" encoding="utf-8"?>
<!-- Generator: Adobe Illustrator 24.0.2, SVG Export Plug-In . SVG Version: 6.00 Build 0)  -->
<svg version="1.1" id="ae078c60-54bd-436d-9521-059685d2198b"
	 xmlns="http://www.w3.org/2000/svg" xmlns:xlink="http://www.w3.org/1999/xlink" x="0px" y="0px" viewBox="0 0 1020 668.2"
	 style="enable-background:new 0 0 1020 668.2;" xml:space="preserve">
<style type="text/css">
	.st0{fill:#3F3D56;}
	.st1{fill:#5A1421;}
	.st2{fill:#FFFFFF;}
	.st3{fill:#A0616A;}
	.st4{fill:#D0CDE1;}
	.st5{fill:#2F2E41;}
	.st6{opacity:0.15;enable-background:new    ;}
</style>
<title>healthy_options</title>
<path class="st0" d="M318.5,409.3c-2.1,0-4.3,0-6.4-0.1l0-1.5c3.1,0.1,6.2,0.1,9.3,0.1l0,1.5C320.4,409.3,319.5,409.3,318.5,409.3z
	 M330.7,409l-0.1-1.5c3.1-0.2,6.2-0.4,9.2-0.8l0.2,1.5C336.9,408.5,333.8,408.8,330.7,409z M302.8,408.7c-3.1-0.2-6.2-0.5-9.3-0.9
	l0.2-1.5c3,0.4,6.1,0.7,9.2,0.9L302.8,408.7z M349.3,407l-0.2-1.5c3-0.5,6.1-1,9.1-1.6l0.3,1.5C355.4,406,352.3,406.5,349.3,407z
	 M284.3,406.4c-3.1-0.5-6.1-1.1-9.2-1.8l0.3-1.5c3,0.7,6.1,1.2,9.1,1.8L284.3,406.4z M367.5,403.4l-0.4-1.5c3-0.7,6-1.6,8.9-2.4
	l0.4,1.5C373.6,401.8,370.6,402.6,367.5,403.4z M266,402.5c-3-0.8-6-1.7-9-2.6l0.5-1.5c2.9,0.9,5.9,1.8,8.9,2.6L266,402.5z
	 M385.4,398.1l-0.5-1.5c2.9-1,5.8-2.1,8.7-3.2l0.6,1.4C391.3,396,388.3,397.1,385.4,398.1L385.4,398.1z M248.2,396.9
	c-2.9-1.1-5.8-2.2-8.7-3.4l0.6-1.4c2.8,1.2,5.7,2.3,8.6,3.4L248.2,396.9z M402.7,391.2l-0.6-1.4c2.8-1.3,5.6-2.6,8.3-4l0.7,1.4
	C408.3,388.5,405.5,389.9,402.7,391.2L402.7,391.2z M419.3,382.7l-0.8-1.3c2.7-1.5,5.3-3.1,7.9-4.8l0.8,1.3
	C424.7,379.5,422,381.1,419.3,382.7L419.3,382.7z M435,372.7l-0.9-1.3c2.5-1.8,5-3.6,7.5-5.5l0.9,1.2
	C440.1,369.1,437.5,371,435,372.7z M199,370.5c-2.5-1.8-5-3.7-7.4-5.7l1-1.2c2.4,1.9,4.9,3.8,7.4,5.6L199,370.5z M449.8,361.4
	l-1-1.2c2.3-2,4.7-4,6.9-6.1l1.1,1.1C454.5,357.3,452.1,359.4,449.8,361.4z M184.4,358.9c-2.3-2-4.6-4.2-6.9-6.3l1.1-1.1
	c2.2,2.1,4.5,4.2,6.8,6.3L184.4,358.9z M463.5,348.7l-1.1-1.1c2.2-2.2,4.3-4.5,6.4-6.7l1.2,1C467.8,344.2,465.6,346.5,463.5,348.7z
	 M170.9,346c-2.1-2.2-4.2-4.6-6.3-6.9l1.2-1c2,2.3,4.1,4.6,6.2,6.8L170.9,346z M476,334.9l-1.2-1c2-2.4,3.9-4.8,5.7-7.3l1.2,0.9
	C479.9,330,477.9,332.5,476,334.9L476,334.9z M158.7,331.9c-1.9-2.4-3.8-4.9-5.6-7.4l1.3-0.9c1.8,2.5,3.7,5,5.6,7.4L158.7,331.9z
	 M487.1,319.9l-1.3-0.9c1.7-2.5,3.4-5.2,5-7.8l1.3,0.8C490.6,314.7,488.9,317.4,487.1,319.9L487.1,319.9z M147.8,316.8
	c-1.7-2.6-3.3-5.2-4.9-7.9l1.3-0.8c1.6,2.6,3.2,5.3,4.9,7.9L147.8,316.8z M496.9,304l-1.4-0.7c1.5-2.7,2.9-5.5,4.3-8.2l1.4,0.7
	C499.9,298.5,498.4,301.3,496.9,304z M505.2,287.3l-1.4-0.6c1.2-2.8,2.4-5.7,3.5-8.6l1.4,0.6C507.6,281.5,506.4,284.4,505.2,287.3z
	 M130.5,283.9c-1.2-2.8-2.3-5.8-3.4-8.7l1.5-0.5c1,2.9,2.2,5.8,3.4,8.6L130.5,283.9z M511.9,269.8l-1.5-0.5c1-2.9,1.9-5.9,2.7-8.8
	l1.5,0.4C513.8,263.9,512.8,266.9,511.9,269.8z M124.1,266.4c-0.9-3-1.8-6-2.6-9l1.5-0.4c0.8,3,1.6,6,2.6,8.9L124.1,266.4z
	 M516.9,251.9l-1.5-0.4c0.7-3,1.3-6,1.9-9.1l1.5,0.3C518.2,245.8,517.6,248.9,516.9,251.9L516.9,251.9z M119.4,248.4
	c-0.6-3-1.2-6.1-1.7-9.2l1.5-0.3c0.5,3,1.1,6.1,1.7,9.1L119.4,248.4z M520.3,233.5l-1.5-0.2c0.4-3,0.8-6.1,1-9.2l1.5,0.1
	C521.1,227.4,520.7,230.5,520.3,233.5L520.3,233.5z M116.3,230c-0.4-3.1-0.7-6.2-0.9-9.3l1.5-0.1c0.2,3.1,0.5,6.2,0.9,9.2L116.3,230
	z M522,215l-1.5-0.1c0.1-3.1,0.2-6.2,0.2-9.3h1.5C522.2,208.7,522.1,211.9,522,215z M114.9,211.4c-0.1-1.9-0.1-3.8-0.1-5.8
	c0-1.2,0-2.4,0-3.6l1.5,0c0,1.2,0,2.4,0,3.5c0,1.9,0,3.8,0.1,5.7L114.9,211.4z M116.8,192.9l-1.5-0.1c0.2-3.1,0.5-6.2,0.8-9.3
	l1.5,0.2C117.3,186.7,117,189.8,116.8,192.9L116.8,192.9z M519.6,183.4c-0.3-3.1-0.7-4.5-1.2-7.6l1.5-0.2c0.5,3.1,0.8,5.4,1.2,8.5
	L519.6,183.4z M118.8,174.5l-1.5-0.2c0.5-3.1,1-6.2,1.6-9.2l1.5,0.3C119.8,168.4,119.3,171.4,118.8,174.5z M516.9,166.7
	c-0.6-3-1.3-6.1-2-9l1.5-0.4c0.7,3,1.4,6.1,2,9.1L516.9,166.7z M122.5,156.3L121,156c0.8-3,1.6-6,2.5-9l1.5,0.4
	C124,150.4,123.2,153.4,122.5,156.3z M512.5,148.7c-0.9-2.9-1.8-5.9-2.8-8.8l1.5-0.5c1,2.9,2,5.9,2.8,8.9L512.5,148.7z M127.8,138.6
	l-1.5-0.5c1-2.9,2.1-5.9,3.3-8.7l1.4,0.6C129.9,132.8,128.8,135.7,127.8,138.6L127.8,138.6z M506.5,131.2c-1.1-2.9-2.3-5.7-3.6-8.5
	l1.4-0.6c1.3,2.8,2.5,5.7,3.6,8.6L506.5,131.2z M134.8,121.4l-1.4-0.6c1.3-2.8,2.7-5.6,4.1-8.4l1.4,0.7
	C137.4,115.8,136,118.6,134.8,121.4z M498.9,114.4c-1.4-2.7-2.9-5.5-4.4-8.1l1.3-0.8c1.5,2.7,3,5.4,4.4,8.2L498.9,114.4z
	 M143.3,104.9l-1.3-0.8c1.5-2.7,3.2-5.4,4.8-8l1.3,0.8C146.4,99.6,144.8,102.3,143.3,104.9L143.3,104.9z M489.8,98.3
	c-1.6-2.6-3.4-5.2-5.1-7.7l1.3-0.9c1.8,2.5,3.5,5.1,5.1,7.8L489.8,98.3z M153.2,89.3l-1.3-0.9c1.8-2.5,3.7-5.1,5.5-7.5l1.2,0.9
	C156.8,84.3,155,86.8,153.2,89.3z M479.3,83.1c-1.9-2.4-3.8-4.9-5.8-7.2l1.2-1c2,2.4,3.9,4.8,5.8,7.3L479.3,83.1z M164.6,74.7
	l-1.2-1c2-2.4,4.1-4.7,6.2-7l1.1,1.1C168.6,70,166.6,72.4,164.6,74.7z M467.4,69c-2.1-2.3-4.2-4.5-6.4-6.7l1.1-1.1
	c2.2,2.2,4.4,4.4,6.5,6.7L467.4,69z M177.2,61.2l-1.1-1.1c2.2-2.2,4.5-4.3,6.8-6.4l1,1.2C181.7,56.9,179.4,59,177.2,61.2z
	 M454.3,55.9c-2.3-2.1-4.6-4.1-7-6.1l1-1.2c2.4,2,4.8,4,7,6.1L454.3,55.9z M191,48.9l-1-1.2c2.4-2,4.9-3.9,7.4-5.7l0.9,1.2
	C195.8,45,193.4,46.9,191,48.9z M205.8,37.8l-0.9-1.3c2.6-1.7,5.2-3.4,7.8-5l0.8,1.3C211,34.5,208.4,36.1,205.8,37.8z M221.6,28.2
	l-0.7-1.4c2.7-1.5,5.5-2.9,8.3-4.3l0.7,1.4C227.1,25.3,224.3,26.8,221.6,28.2z M408.5,24.6c-2.8-1.4-5.6-2.7-8.4-3.9l0.6-1.4
	c2.8,1.3,5.7,2.6,8.5,4L408.5,24.6z M238.2,20.1l-0.6-1.4c2.8-1.2,5.7-2.4,8.6-3.5l0.5,1.4C243.9,17.7,241,18.9,238.2,20.1z
	 M391.6,17.2c-2.9-1.1-5.8-2.2-8.7-3.2l0.5-1.5c2.9,1,5.9,2.1,8.8,3.2L391.6,17.2z M255.5,13.6l-0.5-1.5c2.9-1,5.9-1.9,8.9-2.7
	l0.4,1.5C261.4,11.7,258.4,12.6,255.5,13.6z M374,11.3c-3-0.8-6-1.6-9-2.3l0.4-1.5c3,0.7,6,1.5,9,2.3L374,11.3z M273.3,8.6L273,7.1
	c3-0.7,6.1-1.3,9.1-1.9l0.3,1.5C279.4,7.3,276.3,7.9,273.3,8.6z M356,7c-3-0.6-6.1-1.1-9.1-1.5l0.2-1.5c3.1,0.4,6.2,0.9,9.2,1.5
	L356,7z M291.5,5.3l-0.2-1.5c3.1-0.4,6.2-0.8,9.3-1l0.1,1.5C297.7,4.6,294.6,4.9,291.5,5.3z M337.7,4.4c-3.1-0.3-6.2-0.5-9.2-0.7
	l0.1-1.5c3.1,0.2,6.2,0.4,9.3,0.7L337.7,4.4z M310,3.7l-0.1-1.5c2.8-0.1,5.7-0.2,8.6-0.2l0.7,0l0,1.5l-0.7,0
	C315.7,3.5,312.8,3.6,310,3.7L310,3.7z"/>
<path class="st0" d="M567.7,74.9v501.9c0,12.5-10.1,22.5-22.6,22.5H341.4c-12.4,0-22.5-10-22.6-22.5c0,0,0,0,0-0.1V74.9
	c0-12.5,10.1-22.6,22.6-22.6c0,0,0,0,0,0h30.5v3.9c0,10.3,8.3,18.6,18.6,18.6h103.6c4,0,7.8-1.3,11-3.6c0.6-0.5,1.3-1,1.8-1.5
	c3.7-3.5,5.7-8.4,5.7-13.4v-3.9h32.5C557.6,52.4,567.7,62.5,567.7,74.9C567.7,74.9,567.7,74.9,567.7,74.9z"/>
<rect x="348.6" y="233.3" class="st1" width="189.3" height="144"/>
<path class="st1" d="M248.9,209.1c16.9,0.4,30.3,12.6,30.3,12.6s-13.9,11.6-30.8,11.3s-30.3-12.6-30.3-12.6S232.1,208.7,248.9,209.1
	z"/>
<path class="st1" d="M164.2,151.5c15.2,7.2,32.7,2.3,32.7,2.3s-7.2-16.6-22.5-23.9c-15.2-7.2-32.7-2.3-32.7-2.3
	S149,144.3,164.2,151.5z"/>
<path class="st0" d="M165.7,144.3c16.8-1.5,31.5,9.1,31.5,9.1s-12.5,13.1-29.3,14.7c-16.8,1.5-31.5-9.1-31.5-9.1
	S148.9,145.9,165.7,144.3z"/>
<path class="st0" d="M227.3,147.2c-1.6,16.8,9,31.5,9,31.5s13.2-12.5,14.8-29.2c1.6-16.8-9-31.5-9-31.5S228.9,130.5,227.3,147.2z"/>
<path class="st0" d="M306.3,250.2c-8.8,14.4-5.8,32.3-5.8,32.3s17.3-5.4,26.1-19.8c8.8-14.4,5.8-32.3,5.8-32.3
	S315.1,235.8,306.3,250.2z"/>
<path class="st0" d="M280.8,406.5l1.3-0.9c-4.5-6.6-7-14.3-7.1-22.3c0-11.7,5.8-22.4,11.3-32.9c1-1.9,2.1-3.9,3-5.8
	c4.1-7.9,7.4-16.1,9.8-24.7c8.6-31.9,0.1-69.6-22.6-100.8c-18.1-24.7-45-46.3-82.3-66.1l-0.7,1.4c37.1,19.6,63.8,41.1,81.8,65.6
	c22.5,30.8,30.9,68,22.4,99.4c-2.4,8.5-5.6,16.6-9.7,24.4c-1,1.9-2,3.8-3,5.8c-5.6,10.6-11.4,21.6-11.5,33.6
	C273.5,391.6,276.1,399.7,280.8,406.5z"/>
<circle class="st0" cx="120.7" cy="140.4" r="14.7"/>
<polygon class="st1" points="327.8,379.2 235.5,371.5 235.5,236.1 327.8,231.5 "/>
<polygon class="st1" points="558.7,379.2 651,371.5 651,236.1 558.7,231.5 "/>
<path class="st2" d="M475.4,287.4c-5.6-4.9-13.6-5.9-20.2-2.6c-2.8,1.4-5.9,2.2-9,2.6c-0.1-6.8,1.2-13.5,3.7-19.8l0.4-1.1h-5.4
	l-0.2,0.6c-0.6,2.2-1.1,4.5-1.4,6.8c-0.3-1-0.7-1.9-1.1-2.9c-3.8-7.5-12.6-10.6-13-10.8l-0.8-0.3l-0.2,0.8
	c-0.1,0.4-2.9,9.3,0.9,16.8c2.7,5.4,8,8.5,10.9,9.9c-3.7-0.2-7.3-1.2-10.6-2.8c-4.2-2.2-9.3-1.7-13.1,1.1c-10.1,7.7-15.9,19-15.9,31
	c0,15.7,10.2,30.2,26,36.7c1.4,0.6,2.9,0.9,4.5,0.9c2.1,0,4.2-0.6,6.1-1.7c5-2.9,11.1-2.9,16.1,0c3.2,1.9,7.1,2.2,10.6,0.7
	c15.7-6.6,25.8-21,25.8-36.7C489.3,305.5,484.3,295.1,475.4,287.4z M445.9,268.1h2c-2.2,6-3.4,12.4-3.4,18.8h-0.4
	C443.7,280.6,444.3,274.2,445.9,268.1L445.9,268.1z M430.4,276.9c-2.9-5.7-1.6-12.6-1.1-14.9c2.2,0.9,8.4,4,11.3,9.7
	c2.9,5.7,1.6,12.6,1.1,14.9C439.5,285.7,433.3,282.6,430.4,276.9L430.4,276.9z M462.9,352c-3,1.2-6.4,1-9.2-0.7
	c-5.5-3.2-12.2-3.1-17.7,0c-2.8,1.7-6.2,1.9-9.2,0.7c-15.2-6.3-25-20.2-25-35.3c0-11.5,5.6-22.3,15.3-29.7c1.9-1.4,4.2-2.2,6.5-2.2
	c1.7,0,3.4,0.4,5,1.2c8.6,4.1,18.6,4.2,27.2,0.2c6.1-3,13.4-2.1,18.6,2.4c8.6,7.4,13.4,17.4,13.4,28.2
	C487.8,331.8,478,345.6,462.9,352L462.9,352z"/>
<path class="st2" d="M281.4,272.8v-1.8h0.7v-5.7c0-0.9-0.5-1.6-1.2-2c-3.2-1.7-6.6-1.7-10.2,0c-0.8,0.4-1.3,1.2-1.3,2.1v5.6h0.7v1.6
	c-5.5,1.5-9.2,6.5-9.2,12.2V297l1.4,0.5l-1.4,0.9v3.7l1.4,0.5l-1.4,0.9v3.7l1.4,0.5l-1.4,0.9v28c0,4.6,3.7,8.2,8.3,8.3h12.2
	c4.5,0,8.2-3.7,8.2-8.2v-28.1l-1.4-0.9l1.4-0.5v-3.7l-1.4-0.9l1.4-0.5v-3.7l-1.4-0.9l1.4-0.5v-12.9
	C289.5,279,286.2,274.4,281.4,272.8z M271.3,264.6c3.2-1.5,6.1-1.5,8.8,0c0.2,0.1,0.4,0.4,0.4,0.7v3h-9.7v-3
	C270.9,265,271.1,264.8,271.3,264.6z M288,295.9l-3.3,1.1l3.3,2.2v1.7l-3.3,1.1l3.3,2.2v1.7l-3.3,1.1l3.3,2.2v27.2
	c0,3.7-3,6.7-6.7,6.7h-12.2c-3.7,0-6.7-3-6.7-6.7v-27.2l3.3-2.2l-3.3-1.1v-1.7l3.3-2.2l-3.3-1.1v-1.7l3.3-2.2l-3.3-1.1v-11.1
	c0-5.2,3.6-9.7,8.6-10.8l0.6-0.1v-2.9h8.2v3l0.6,0.2c4.5,1.3,7.6,5.4,7.6,10.1V295.9z"/>
<path class="st2" d="M645.4,294l-3.9-0.8l0.9-1.8l-1.8-0.4l0.3-1.9l-2-0.3V287l-1.6-0.5l1.5-1.9h-2.6l0.5-1.4l-1.9-0.3l0.7-2.3h-2.1
	v-2.1h-0.8c-2.4,0-3.8,2.9-4.2,4.1c-13.5,2.3-52.6,29.4-57,32.5c-1.9-0.6-4.6,0.8-5.2,1.1l-0.9,0.5l1.3,1.3l-0.4,1.2l2.4,0.9
	l-0.5,1.3l1.5,1.3l-1.4,1l2,1.2l-0.4,1.8l2.3,0.3v1.8l1.3,0.3l-0.7,2.3h1.5v1.8h1.4l0.7,2l0.7-0.1c1.6-0.3,2.9-2.5,3.4-3.4
	c13-2.3,53-30.5,56.9-33.2c4.6,0.5,6.2-0.7,6.4-0.8l0.7-0.6l-1.8-1.5L645.4,294z M637.4,297l-0.3,0l-0.2,0.2
	c-0.4,0.3-44.4,31.4-56.9,33.2l-0.4,0.1l-0.2,0.4c-0.5,1-1.1,1.9-1.9,2.6l-0.5-1.5h-1V330h-1l0.6-2l-1.7-0.3v-1.9l-2-0.3l0.3-1.3
	l-1-0.6l1.1-0.8l-2.2-1.8l0.7-1.7l-2.5-0.9l0.2-0.7l-0.5-0.5c1.2-0.5,2.6-0.8,3.2-0.5l0.4,0.3l0.4-0.3c0.4-0.3,44.1-30.8,57.2-32.6
	l0.5-0.1l0.1-0.5c0.2-0.7,1-2.6,2.2-3.2v1.9h1.6l-0.6,2l1.7,0.3l-0.7,1.7h1.7l-0.9,1.2l2.7,0.8v1.9l1.7,0.3l-0.3,1.8l1.3,0.3
	l-0.9,1.8l2.2,0.4l-1.1,0.8l1.6,1.4C640.4,297.2,638.9,297.2,637.4,297z"/>
<circle class="st1" cx="443.3" cy="420.7" r="22.5"/>
<polygon class="st2" points="457.4,418.5 445.5,418.5 445.5,406.6 441,406.6 441,418.5 429.1,418.5 429.1,422.9 441,422.9 
	441,434.9 445.5,434.9 445.5,422.9 457.4,422.9 "/>
<polygon class="st2" points="514.1,421.5 502.5,416.1 502.5,419.2 475.4,419.2 475.4,423.8 502.5,423.8 502.5,426.9 "/>
<polygon class="st2" points="372.4,421.5 384,416.1 384,419.2 411.1,419.2 411.1,423.8 384,423.8 384,426.9 "/>
<rect x="159.4" y="599.6" class="st0" width="567.6" height="1.5"/>
<rect x="368.9" y="125.7" class="st2" width="148.7" height="1.5"/>
<rect x="369.3" y="548.5" class="st2" width="148.7" height="1.5"/>
<path class="st3" d="M756.8,395.6l-3.9,14.7c0,0-13.9,31,0,32.5c13.9,1.5,14.7-40.3,14.7-40.3L756.8,395.6z"/>
<path class="st4" d="M780.8,289.5l-27.9,110c0,0,10.8,3.1,16.3,7L780.8,289.5z"/>
<path class="st5" d="M868.3,373.1l7.7,120c0,0,18.6,47.2,17.8,92.1c0,0-7,17.8-1.5,20.9c5.4,3.1,8.5,5.4,5.4,7.7
	c-3.1,2.3-5.4,7.7-3.1,9.3c2.3,1.5,3.1,3.9,2.3,3.9h-23.2c0,0,4.6-11.6-2.3-14.7c-7-3.1-3.1-10.8-3.1-10.8l-51.9-151.8l-41,139.4
	c0,0,7,4.6,1.5,7c-5.4,2.3-7.7-2.3-5.4,2.3c2.3,4.6-0.8,7-0.8,7.7s-23.2-2.3-23.2-2.3s11.6-10.1,6.2-12.4c-5.4-2.3-7.7-4.6-6.2-6.2
	c1.5-1.5,7.7-16.3,7.7-16.3s3.1-55.8,3.9-58.1c0.8-2.3,0-13.2,0-18.6c0-5.4-0.8-27.1,1.5-32.5c2.3-5.4,4.6-72,17-79.8
	S868.3,373.1,868.3,373.1z"/>
<path class="st5" d="M770,602.3c0,0,15.5,31.7,4.6,35.6s-24.8,0.8-27.9,5.4c-3.1,4.6-37.2,10.1-37.9-1.5
	c-0.8-11.6,37.2-33.3,37.2-33.3l4.9-8L770,602.3z"/>
<path class="st5" d="M899.3,621.7c0,0,15.5,31.7,4.6,35.6c-10.8,3.9-24.8,0.8-27.9,5.4c-3.1,4.6-37.2,10.1-37.9-1.5
	s37.2-33.3,37.2-33.3l4.9-8L899.3,621.7z"/>
<circle class="st3" cx="823.8" cy="201.6" r="25.6"/>
<polygon class="st3" points="841.2,215.1 838.1,237.6 814.9,255.4 808.7,246.9 808.7,217.5 "/>
<path class="st0" d="M804.9,243.8c0,0,24,2.3,36.4-6.2L866,383.9c0,0-87.5,7-91.4,2.3v-45.7l15.5-74.3L804.9,243.8z"/>
<path class="st4" d="M839.1,230.6l8.3,7c0,0,34.1,5.4,31.7,14.7l-9.3,110l3.1,37.2c0,0-26.3-7-46.5,0c-20.1,7-4.1-149.8-4.1-149.8
	S840.9,232.9,839.1,230.6z"/>
<path class="st4" d="M808.7,239.1c0,0-24.8,17.9-27.9,29.5c-3.1,11.6-13.2,134-13.2,134s4.6-2.3,7,1.5S812.6,245.2,808.7,239.1z"/>
<path class="st3" d="M876.9,401l-5.6,18.1c0,0-1.4,33.8-20,29.1c-18.6-4.6,5.4-44.1,5.4-44.1l5.4-8.5L876.9,401z"/>
<path class="st5" d="M798.3,200.5c0,0-2.8-4.1-1.7-8.6c0.6-2.5,0.9-5.2,0.7-7.8c0,0,2.2-7.2,4.5-11.3s1.2-5.7,8.2-7
	c7-1.3,4.1-10.4,22.7-0.5c1.3,1.8,3.5,2.6,5.6,2.1c3.8-0.7,5.2,4.6,5.2,4.6s2.6-1.5,3.5,0.6c1,2.1,7.8-1.3,7.8,13.1
	c0,14.4-7.8,27.2-7.8,27.2s0.6-24.2-12.1-26.6c-12.7-2.4-26.3-9.6-29.6-0.4C803.6,191,801.2,195.9,798.3,200.5z"/>
<ellipse class="st3" cx="847.3" cy="202.9" rx="2.5" ry="3.3"/>
<path class="st4" d="M873,246.9c0,0,12.4-3.1,16.3,17.8c3.9,20.9,8.5,80.5,8.5,80.5L879.2,408c0,0-18.6-10.1-22.5-8.5l14.6-54.5
	l-12.3-55.5C859.1,289.5,869.9,246.9,873,246.9z"/>
<polygon class="st6" points="855,290.5 871.2,344.7 855,399.7 864.3,344.7 "/>
</svg>
