<?xml version="1.0" encoding="utf-8"?>
<!-- Generator: Adobe Illustrator 24.0.2, SVG Export Plug-In . SVG Version: 6.00 Build 0)  -->
<svg version="1.1" id="_x37_5ec1790-e4b7-40a0-8812-a9d39b2e2dcc"
	 xmlns="http://www.w3.org/2000/svg" xmlns:xlink="http://www.w3.org/1999/xlink" x="0px" y="0px" viewBox="0 0 1020 668.2"
	 style="enable-background:new 0 0 1020 668.2;" xml:space="preserve">
<style type="text/css">
	.st0{opacity:0.1;fill:#5A1421;enable-background:new    ;}
	.st1{opacity:0.5;}
	.st2{fill:#5A1421;}
	.st3{opacity:0.2;fill:#FFFFFF;enable-background:new    ;}
	.st4{fill:url(#SVGID_1_);}
	.st5{opacity:6.000000e-02;enable-background:new    ;}
	.st6{fill:#A1616A;}
	.st7{fill:#464353;}
	.st8{fill:#FBBEBE;}
	.st9{opacity:3.000000e-02;enable-background:new    ;}
	.st10{opacity:6.000000e-02;}
</style>
<title>personal trainer</title>
<path class="st0" d="M589.6,111.4c-63.9-2.2-124.7-22.8-182.7-45.4S291.2,18.5,228.9,6.5c-40.1-7.7-86-8.8-118.3,12.7
	c-31.1,20.7-41.1,56.4-46.5,89.5c-4.1,24.9-6.4,51.2,4.7,74.5c7.7,16.2,21.5,29.8,30.9,45.3c33,54,9.7,120.6-26.1,173.3
	c-16.8,24.7-36.3,48.3-49.2,74.6c-13,26.3-18.9,56.5-7.6,83.3c11.2,26.6,38,46.6,67,60.7c58.9,28.5,128.3,36.7,196,41.4
	c149.8,10.2,300.4,5.8,450.6,1.4c55.6-1.6,111.4-3.3,166.1-11.9c30.4-4.8,61.7-12.3,83.8-30.6c28-23.2,34.9-62.5,16.2-91.6
	C965,480.3,878,468.2,856,415.7c-12.1-28.8,0.3-61,17.9-87.7c37.7-57.4,101-107.7,104.3-173.3c2.3-45.1-28.1-90.2-75.1-111.5
	c-49.3-22.3-117.6-19.5-153.9,17.5C711.7,98.7,646,113.4,589.6,111.4z"/>
<g class="st1">
	<polygon class="st2" points="443.8,349.6 414.8,350.2 410.1,356.7 410.1,379.1 416,383.2 443.8,383.2 449.7,376.7 449.7,355.5 	"/>
	<path class="st3" d="M443.2,353.1c0,0-26.6,4.1-28.9,0l0.6-2.9l28.3-0.6V353.1z"/>
	<path class="st2" d="M446.1,414.5l4.7,4.7v22.5l-4.7,4.7c0,0-17.1,5.9-28.3,1.2l-5.3-5.3v-22.5l4.7-5.3L446.1,414.5z"/>
	<path class="st3" d="M444.9,419.8c0,0-20.7,4.7-27.7,0v-5.3h28.9L444.9,419.8z"/>
	<path class="st2" d="M434.9,383.1V415c-0.1,2.6-2.4,4.7-5,4.5l0,0c-2.6,0.1-4.9-1.9-5-4.5v-31.9c0-2.7,2.6-4.8,5.6-4.5l0,0
		C432.9,378.7,434.8,380.7,434.9,383.1z"/>
	<polygon class="st2" points="490.1,350.5 461.2,351.1 456.4,357.6 456.4,380 462.4,384.1 490.1,384.1 496,377.6 496,356.4 	"/>
	<path class="st3" d="M489.5,354c0,0-26.6,4.1-28.9,0l0.6-2.9l28.3-0.6V354z"/>
	<path class="st2" d="M492.4,415.4l4.7,4.7v22.5l-4.7,4.7c0,0-17.1,5.9-28.3,1.2l-5.3-5.3v-22.4l4.7-5.3L492.4,415.4z"/>
	<path class="st3" d="M491.3,420.7c0,0-20.7,4.7-27.7,0v-5.3h28.9L491.3,420.7z"/>
	<path class="st2" d="M481.2,384v31.9c-0.1,2.6-2.4,4.7-5,4.5l0,0c-2.6,0.1-4.9-1.9-5-4.5V384c0-2.7,2.6-4.8,5.6-4.5l0,0
		C479.2,379.6,481.1,381.6,481.2,384z"/>
	<polygon class="st2" points="549.1,367.6 525.3,368 521.4,373.4 521.4,391.9 526.2,395.3 549.1,395.3 553.9,389.9 553.9,372.4 	"/>
	<path class="st3" d="M548.6,370.5c0,0-21.9,3.4-23.8,0l0.5-2.4l23.3-0.5L548.6,370.5z"/>
	<path class="st2" d="M551,421l3.9,3.9v18.5l-3.9,3.9c0,0-14.1,4.9-23.3,1l-4.4-4.4v-18.5l3.9-4.4H551z"/>
	<path class="st3" d="M550.1,425.4c0,0-17,3.9-22.8,0V421H551L550.1,425.4z"/>
	<path class="st2" d="M541.8,395.1v26.3c-0.1,2.2-2,3.8-4.1,3.7l0,0c-2.2,0.1-4-1.6-4.1-3.7v-26.3c0.1-2.2,2-3.9,4.2-3.8
		c0.1,0,0.3,0,0.4,0l0,0C540.1,391.5,541.7,393.1,541.8,395.1z"/>
	<polygon class="st2" points="587.2,368.3 563.4,368.8 559.5,374.1 559.5,392.6 564.4,396 587.2,396 592.1,390.7 592.1,373.2 	"/>
	<path class="st3" d="M586.7,371.2c0,0-21.9,3.4-23.8,0l0.5-2.4l23.3-0.5L586.7,371.2z"/>
	<path class="st2" d="M589.2,421.8l3.9,3.9v18.5l-3.9,3.9c0,0-14.1,4.9-23.3,1l-4.4-4.3v-18.5l3.9-4.4H589.2z"/>
	<path class="st3" d="M588.2,426.1c0,0-17,3.9-22.8,0v-4.4h23.8L588.2,426.1z"/>
	<path class="st2" d="M579.9,395.9v26.3c-0.1,2.2-2,3.8-4.1,3.7l0,0c-2.2,0.1-4-1.6-4.1-3.7v-26.3c0-2.2,2.2-4,4.6-3.7l0,0
		C578.3,392.3,579.8,393.9,579.9,395.9z"/>
</g>
<linearGradient id="SVGID_1_" gradientUnits="userSpaceOnUse" x1="514.6577" y1="-13.1309" x2="514.6577" y2="514.9999" gradientTransform="matrix(1 0 0 -1 -23.94 602.0973)">
	<stop  offset="0" style="stop-color:#808080;stop-opacity:0.25"/>
	<stop  offset="0.54" style="stop-color:#808080;stop-opacity:0.12"/>
	<stop  offset="1" style="stop-color:#808080;stop-opacity:0.1"/>
</linearGradient>
<path class="st4" d="M917.8,463.7c-1.9-3.4-5.3-5.6-9-6.6c-3.7-0.9-7.5-1.1-11.3-0.7c-6.1,0.4-12.2,1.4-18.1,3
	c-3.7,1-7.5,2.3-10,5.2c-0.1,0.1-0.1,0.2-0.2,0.3c-3.8,1-7.6,2.5-11.2,3.8c-3.7,1.2-7.4,2.2-11.2,3.1c5-2.8,9.8-5.8,13.9-9.8
	c1.9-1.9,3.7-4,5.2-6.2c2.8,0.8,5.8,1,8.6,0.6c5.9-1,10.6-5.2,15-9.3l14.2-13c2.3-2.1,4.5-4.2,6.1-6.9c2-3.8,2.2-8.3,2.3-12.6
	c0.1-5.9,0-11.9-0.2-17.8l4.5,3.5c-0.7-7.3,0.7-14.7,3.9-21.2c1.6-3.1,3.6-6.3,3.6-9.8c0.1-5.4-4.6-9.7-9.4-12.1
	c-4.8-2.4-10.2-3.9-14.1-7.6c-5.8-5.5-6.9-14.2-9.8-21.8c-1.7-4.1-3.7-8.1-6.1-11.9l-5.6-9.8c-2.8-5.1-6-10.1-9.4-14.9
	c-5.8-7.7-13.2-14-20.5-20.3l-37.9-32.7c-9.2-7.9-18.5-15.9-28.4-22.9c-20.2-14.1-43-23.8-65.7-33.4c-5.7-2.4-11.6-4.9-17.8-4.6
	c-4.7,0.3-9.1,2.2-12.5,5.3c-3.2-1-6.4-2.2-9.5-3.6l-0.2-0.1c0.1-0.5,0.1-1,0.2-1.5c0.1-0.7,0.1-1.3,0.2-2c1.7-0.3,3.4-0.8,4.9-1.6
	c0.8-0.4,1.5-0.9,2-1.6c0.7-1.2,1.1-2.5,1-3.8c0.7-9,1.4-18.2,0.6-27.1c-0.7-9-3-18.1-7.8-25.7c-1.5-2.4-3.3-4.7-5.9-5.7
	c-3.5-1.4-7.5-0.1-11.2-0.7c-6.4-1.1-10.4-7.3-15-11.9c-11.7-11.7-31.7-13.4-45.2-4c-5.1,3.6-9.2,8.5-13.8,12.7s-9.9,8.2-16.1,9
	c-1.1,0-2.2,0.3-3.3,0.9c-1.3,0.8-1.8,2.3-2.3,3.7c-1.7,4.9-3.4,9.9-3.9,15c-0.1-0.3-0.1-0.6-0.2-0.9c-0.2,1.9-0.3,3.8-0.1,5.7
	c0.2,2.4,0.9,4.8,2.1,6.9c1,2,2.7,3.6,4.7,4.5c1.5,0.5,3,0.8,4.6,0.7h0.7c-0.3,0.7-0.5,1.3-0.7,2c-1.9,5.7-2.9,11.7-2.9,17.7
	c0,30.3,24.1,54.8,54,54.8c3.6,0,7.2-0.4,10.7-1.1c1.2,0.4,2.3,0.8,3.5,1.2c2.3,0.8,4.6,1.6,6.8,2.7c0.9,0.4,4.7,2.6,9.3,5.5l0,0
	l-0.3,0.6c-9.1,8.5-12.9,21.2-9.9,33.2c3.3,12.9,14.1,23.9,13,37.1c-0.2,1.9-0.6,3.8-0.2,5.7c0.4,2.6,2.2,4.7,4,6.6
	c1.5,1.7,3.1,3.3,4.7,4.9c-0.1,8.4-0.9,16.9-1.7,25.3c-0.1,0.7-0.1,1.5-0.1,2.2c0,3.6,1.4,7.1,3.7,9.9c2.5,3.1,3.5,7.6,3,11.7
	c-0.7,5.8-3.6,11.1-5.5,16.7c-8.7,24.9,2,53-4,78.8c-1.5,6.3-4,12.5-4.3,19c-0.2,4.1,0.4,8.3-1.1,12.1c-1.4,3.3-4.2,5.6-6.9,7.9
	c-3.8,3.2-7.5,6.6-11,10c-5.4-3-11-5.6-16.7-7.9c-0.9-0.4-1.9-0.7-2.9-1c-6.8-6.3-15.3-10.4-23.3-15c-6.6-3.8-13-8.2-19.3-12.5
	c-6.1-4.2-12.2-8.3-17.4-13.7c-2.6-2.7-4.9-5.7-7.7-8.1c-2.5-2-5.1-3.9-7.8-5.6c-12.3-7.9-24-16.7-35-26.3
	c-8.4-7.3-15.3-16.7-24.3-23.2c-5.5-4-11.9-7.7-18.7-6.9c-2.1,0.3-4.2,0.9-6.1,1.9c-1.8-0.8-3.7-1.2-5.6-1.3
	c-5.5-0.2-10.5,2.8-15.2,5.7c-27.7,16.8-55.8,32.9-84.3,48.2c-5.8,3.1-11.6,6.2-17,9.7c-10.7,6.9-20.2,15.6-28.1,25.7
	c-1.5,1.8-3.3,3.9-5.6,3.7c-0.6-0.1-1.2-0.3-1.8-0.6c-3.6-1.9-5.7-5.7-7.8-9.2c-1.5-2.6-3.1-5.3-5.3-7.3l0,0
	c-0.5-1.2-1.1-2.4-1.9-3.5c3.1-7.6,5.7-15.3,8.2-23.1c1.3-4.1,2.5-8.2,4.2-12.2c4-9.8,10.5-18.8,12.7-29.2c0.5-2.5,0.9-5.1,1.3-7.6
	c24.9-4.9,43.6-27.1,43.6-53.8c0-30.3-24.2-54.8-54-54.8c-29.8,0-54,24.5-54,54.8c-0.1,18.7,9.4,36.2,25.2,46.3c0,0.1,0,0.2,0,0.3
	c-0.1,1.7-0.2,3.5-0.5,5.2c-1,5.8-3.5,11.2-5.9,16.5c-1.6,3.5-3.3,7.1-5,10.6c-0.8-0.2-1.6-0.4-2.4-0.8c-1.5-0.8-2.1-2.6-2.7-4.2
	c-2.4-7.2-5.4-14.2-9-21c-1.4-2.9-3.1-5.5-5.2-8c-3.6-4-8.6-6.4-13.5-8.8c-0.9-0.4-1.7-0.9-2.5-1.3c-0.7-0.5-1.5-1-2.2-1.5
	c-4-2.3-8.5-3.9-11.8-7.1c-2.5-2.4-4.2-5.5-6.6-8c-3.9-4.2-9.3-6.6-14.6-8.9c-2.7-1.2-5.6-2.4-8.6-2.2c-0.4,0-0.8,0.1-1.3,0.1
	c-0.7,0.1-1.4,0.3-2.1,0.5c-0.7-0.4-1.3-0.8-1.9-1.3c-3.2-2.5-4.5-6.7-5.5-10.7c-1.7-6.6-3.6-13.4-2.5-20.2c0.2-1.2,0.4-2.3,0.8-3.5
	c0.3-0.4,0.5-0.9,0.8-1.3c23.9-7.2,37.4-32.3,30.2-56.2c-1.4-4.8-3.7-9.3-6.6-13.4c-0.4-0.6-0.9-1.2-1.4-1.8l0.5-0.3
	c4.8-2.9,5.9-9.9,3.7-15.1c-2.2-5.2-6.9-8.9-11.7-11.8c-0.7-0.4-1.4-0.8-2.1-1.2l-0.6-0.3c-0.5-0.3-1.1-0.6-1.6-0.9l-0.6-0.3
	c-0.6-0.3-1.3-0.6-1.9-0.9l-0.3-0.1c-0.8-0.4-1.6-0.7-2.4-1l0,0c-0.8-0.3-1.5-0.6-2.3-0.9l-0.3-0.1c-0.7-0.3-1.5-0.5-2.2-0.8
	l-0.2-0.1c-5.4-1.8-11.1-2.7-16.8-2.8c-5.6,0-11.2,0.7-16.6,1.8c-5.3,1-10.5,2.5-15.6,4.5c-8.3,3.5-15.6,9-21.3,16
	c-1.2,0.1-2.4,0.3-3.6,0.6c-4.7,1.2-8.9,3.8-12.7,6.8c-3.2,2.4-6.1,5.2-8.5,8.4c-2.8,4.1-4.8,8.7-5.7,13.6
	c-3.3,15.3,0.8,31.1,3.7,46.5c3,15.4,4.7,32.2-2.6,46c-2.7,5.2-6.6,9.7-9.5,14.8c-2.9,5.1-4.9,11.2-3.2,16.9
	c2,6.9,8.6,11.2,12.1,17.4c4,7.3,2.9,17-2.4,23.3c-0.2,0.3-0.5,0.6-0.7,0.9c-0.3,0.3-0.6,0.6-0.9,0.9c5.5,1.9,11.5-0.1,16.4-3.2
	c3.9-2.3,7.2-5.5,9.7-9.3c6.2-10.2,3.4-23.3,5.6-35c2.9-15.4,14.4-29.1,12.8-44.6c-1.1-10.4-7.9-19.2-13.2-28.1
	c-3.6-6-6.5-12.4-8.9-19c-0.1-0.3-0.2-0.6-0.3-0.9l0,0c-1.6-4.5-2.8-9.2-2-13.8c0.3-1.5,0.7-3,1.3-4.4c0,0.2,0,0.3,0,0.5
	c0.1,4.5,1.1,8.9,2.9,13.1c5.4,11.2,18.4,16.4,26.7,25.5c0.3,0.4,0.7,0.8,1,1.2c0.1,0.1,0.2,0.2,0.3,0.3l0.7,0.9l0.3,0.4
	c0.2,0.3,0.4,0.6,0.6,0.9l0.3,0.4c0.3,0.4,0.6,0.9,0.8,1.3c2.1-2.3,4.3-4.8,5.1-7.8c0.1-0.3,0.1-0.5,0.2-0.8
	c0.1,0.1,0.1,0.1,0.2,0.2c0.2,0.9,0.3,1.9,0.4,2.8l0,0c0,1.3,0.1,2.7,0.4,4c0.7,8.3,0.1,16.8-0.4,25.2c-0.3,4.5,0.9,11.1-2,14.4
	l-0.1,0.1c-0.2,0.2-0.3,0.4-0.5,0.5l0,0c-0.5,0.5-1,1-1.4,1.5c-9.5,10.7-13.8,25.9-13.6,40.5c0.2,16.6,5.5,32.7,11.5,48.1
	c2.1,5.6,4.6,11.1,7.4,16.4c1.5,2.9,3.4,5.5,5.7,7.7c2.4,2.2,5.4,3.6,8.3,5c0.7,0.3,1.5,0.7,2.2,1l1.9,0.9l14.2,6.7
	c2.6,3.8,5.1,7.7,7.6,11.7c0.4,0.6,0.7,1.1,1.1,1.7c2.8,4.3,5.6,8.6,8.4,12.8l23.9,35.3c1.7,2.6,3.5,5.2,6,7.1
	c0.7,0.5,1.4,1,2.2,1.4c0.4,0.2,0.8,0.4,1.2,0.5c-0.5,0.8-0.7,1.7-0.6,2.7c0.3,0.9,0.9,1.7,1.7,2.3c5.4,4.5,11.4,9.2,13.1,16
	c1.2,4.9,0,10.1,1.1,15c2,8.9,10.7,14.2,19,17.6c18.6,7.6,39.2,10.6,58.9,7s38.5-13.8,51.2-29.4c3.9-4.8,7.3-10.1,11-15.1
	c2.6-3.5,5.4-6.9,8.4-10.1c3.2-1.5,6.2-3.1,9.2-5.1c6.2-4.1,11.6-9.5,17.3-14.4c4.2-3.7,8.7-7.2,12.6-11.2c3.5-3.8,6.8-7.9,9.8-12.1
	c6.9-9.2,14.1-18.1,21.4-26.9c3.9-4.7,8.1-9.5,13.6-12.1l0.3-0.1c0.7,3.9,3.7,7.2,5.9,10.5c8.9,13.8,18.2,28.1,32,36.9
	c7.5,4.8,16.1,7.8,24.6,10.5c21.6,6.8,43.6,12.2,65.6,17.6c0.7-1.4,1.4-2.7,2.2-3.9c0.3,0.4,0.7,0.7,1,1.1c0.1,0.1,0.2,0.3,0.3,0.4
	c-0.2,0-0.3,0.1-0.5,0.1c-1.4,0.7-2.5,1.8-3.1,3.3c-2.4,4.7-2.6,10.3-2.7,15.6c-0.1,5.2,0,10.4,0,15.6c-0.1,1.9,0.2,3.9,0.9,5.7
	c1.7,3.5,5.9,4.7,9.8,5.2c6.6,0.7,13.3,0.1,19.9-0.8c0.4,1.6,1,3,1.8,4.4c3.7,6.1,10.1,10,16.7,12.4s13.7,3.3,20.6,4.7
	c12.3,2.4,24.8,6.3,37,3.6c4.9-1.1,9.5-3.2,14.4-4.2c11.1-2.1,22.7,2.2,33.9,0.4c5.4-0.9,10.5-3,15.5-5.5c2.5-1.1,4.7-2.6,6.6-4.6
	c1.8-2,2.9-4.9,2.1-7.5c-0.4-1.5-1.4-2.8-2-4.2c-0.9-2.3-1.4-4.7-1.5-7.1c-0.9-9.2-2.5-18.3-4.7-27.3c-0.1-0.3-0.1-0.5-0.2-0.8
	c8.5-3.4,16.1-8.6,23.6-13.9l16.1-11.3c5.2-3.7,10.5-7.3,16.3-9.9c8.9-3.9,18.8-5,28.6-5c4,0,8,0.2,11.9,0.6
	c-0.5,0.6-0.9,1.2-1.1,1.9c-0.8,2.5,0.5,5.2,2.3,7c1.9,1.8,4.3,2.8,6.5,4.1c6.1,3.4,11.2,8.4,14.7,14.4c2.2,3.8,3.8,8.4,2.4,12.6
	c-1.7,5.2-7.9,8.9-7.5,14.4c0.2,3.3,2.8,5.9,5.8,7.1c3,1.2,6.3,1.2,9.5,1.1c5.3-0.2,10.7-0.6,15.4-3c3.2-1.6,5.9-4.1,8.5-6.5
	c2.4-2.2,4.9-4.5,6.2-7.5c1.3-2.8,1.5-6,1.5-9.1c0.3-14.5-2.2-29.2,0.6-43.4c0.9-4.3,2.2-8.6,3-12.9c1.2-6.9,0.7-13.9,0.3-20.9
	C919.8,470.2,919.5,466.7,917.8,463.7z"/>
<path class="st5" d="M735.2,263.3c-3.4,2.3-4.6,6.7-5,10.8c-1.8,17.4,5.3,34.5,4.8,52c-0.4,13.9-5.6,27.1-10.7,40
	c-8.7,22-13.2,45.9-15,69.5c-1.8,23.6-4.3,48.2-17,68.2c-2.9,4.5-6.2,8.7-9.1,13.3c-3,4.8-5.3,9.9-7.9,14.8
	c-7.7,14.6-17.6,27.9-29.4,39.5c-3.5,3.4-7.1,6.6-11.5,8.6c-5.7,2.5-12.2,2.6-18,0.2c-5.9-2.4-10.9-8-11.1-14.4
	c-0.2-5.7,3.2-10.9,6.6-15.5c11.6-15.5,24.9-29.7,39.8-42.2c2.7-2.3,5.5-4.6,6.9-7.8c1.6-3.7,0.9-8,1.1-12
	c0.3-6.4,2.8-12.6,4.3-18.8c6.1-25.5-4.7-53.3,4-78c1.9-5.5,4.8-10.7,5.5-16.5c0.5-4-0.5-8.6-3.1-11.6c-2.4-2.7-3.7-6.2-3.7-9.8
	c0-0.7,0-1.5,0.1-2.2c1.1-11.3,2.1-22.7,1.5-34c-0.6-11.4-2.8-22.8-8.1-32.9c-2.7-5.2-6.2-10.1-7.9-15.8c-2.7-9.1-0.2-19,3.8-27.7
	c3.1-6.8,7.3-13.2,13.2-17.8c10.9-8.6,27.1-9.6,39-2.5c8.8,5.2,14.8,14,19.6,23C731.6,250.3,735.2,255.8,735.2,263.3z"/>
<path class="st6" d="M706.3,194.4c-1.7,4.5-3.3,9-5,13.4c-1.1,2.9-2.2,5.9-3.3,8.8c-5.2,13.5-11,26.9-20.1,38.1
	c1.4-1.7-11.4-10.1-20.8-15.9c-4.6-2.8-8.4-5-9.3-5.4c-2.2-1-4.5-1.9-6.8-2.6c-3.6-1.2-7.2-2.3-10.8-3.6c-8.3-3-2.5-7.5,1.1-12.3
	c11.6-15.9,13.8-37.5,27-52.1c4.8,9.2,12.5,16.6,21.9,21.1c0.2,0.1,0.4,0.2,0.6,0.3c7.8,3.7,16.5,5.2,24.6,8.3
	c0.4,0.2,1,0.4,1.1,0.9C706.5,193.8,706.5,194.1,706.3,194.4z"/>
<path class="st6" d="M683.8,514.7c-7.6,10.9-9.1,25-4,37.3c0.6,1.7,1.6,3.2,2.9,4.5c1.6,1.3,3.5,2.2,5.6,2.6
	c17.2,4.9,35.5,3.9,53.1,0.9c6-0.9,11.8-2.4,17.5-4.5c8.7-3.3,16.5-8.6,24.2-14l16.2-11.2c5.3-3.6,10.6-7.3,16.4-9.8
	c9-3.9,19-5,28.7-5c8.4,0,16.8,0.8,25.1,2.4c5.5,1.1,12.1,2.2,16-1.9c2.2-2.3,2.9-5.6,3.3-8.7c1.7-12.2,1.7-24.6-0.1-36.8
	c0-1-0.4-2-1.1-2.8c-0.6-0.5-1.4-0.9-2.1-1c-7.7-1.7-15.3,1.9-22.8,4.3c-15.5,5.1-32,5.7-47.8,10c-16.5,4.4-32,12.8-49,14.5
	c-8.1,0.8-16.3,0.1-24.4,0.3c-7.6,0.2-14.6,2.8-22,3.1C705.1,499.6,692.7,502.1,683.8,514.7z"/>
<path class="st5" d="M683.8,514.7c-7.6,10.9-9.1,25-4,37.3c0.6,1.7,1.6,3.2,2.9,4.5c1.6,1.3,3.5,2.2,5.6,2.6
	c17.2,4.9,35.5,3.9,53.1,0.9c6-0.9,11.8-2.4,17.5-4.5c8.7-3.3,16.5-8.6,24.2-14l16.2-11.2c5.3-3.6,10.6-7.3,16.4-9.8
	c9-3.9,19-5,28.7-5c8.4,0,16.8,0.8,25.1,2.4c5.5,1.1,12.1,2.2,16-1.9c2.2-2.3,2.9-5.6,3.3-8.7c1.7-12.2,1.7-24.6-0.1-36.8
	c0-1-0.4-2-1.1-2.8c-0.6-0.5-1.4-0.9-2.1-1c-7.7-1.7-15.3,1.9-22.8,4.3c-15.5,5.1-32,5.7-47.8,10c-16.5,4.4-32,12.8-49,14.5
	c-8.1,0.8-16.3,0.1-24.4,0.3c-7.6,0.2-14.6,2.8-22,3.1C705.1,499.6,692.7,502.1,683.8,514.7z"/>
<path class="st7" d="M697.7,496.4c-0.4,1.9-0.8,3.9-0.2,5.8c0.7,1.8,1.9,3.4,3.5,4.7c14.7,13.2,35.7,15.9,55.3,18
	c5.3,0.6,10.7,1.2,16,0.2c4.8-0.9,9.3-3,13.7-5.1c9.5-4.5,19.1-9.1,27.2-15.7c8-6.5,14.4-14.8,22.7-20.9c9.4-6.9,21-10.9,29.4-19
	c6.1-5.9,10.1-13.5,11.5-21.8c1-5.7,0.6-11.5,0-17.2c-0.7-6.6-1.8-13.3-4.9-19.1c-3.6-6.7-9.7-11.8-16.1-16
	c-13.6-8.8-29.6-14.3-45.8-14.2c-22.5,0.2-43.2,13.3-59.4,28c-17.1,15.6-30.9,34.3-40.6,55.3C704.5,471.1,700.4,483.6,697.7,496.4z"
	/>
<path class="st5" d="M697.7,496.4c-0.4,1.9-0.8,3.9-0.2,5.8c0.7,1.8,1.9,3.4,3.5,4.7c14.7,13.2,35.7,15.9,55.3,18
	c5.3,0.6,10.7,1.2,16,0.2c4.8-0.9,9.3-3,13.7-5.1c9.5-4.5,19.1-9.1,27.2-15.7c8-6.5,14.4-14.8,22.7-20.9c9.4-6.9,21-10.9,29.4-19
	c6.1-5.9,10.1-13.5,11.5-21.8c1-5.7,0.6-11.5,0-17.2c-0.7-6.6-1.8-13.3-4.9-19.1c-3.6-6.7-9.7-11.8-16.1-16
	c-13.6-8.8-29.6-14.3-45.8-14.2c-22.5,0.2-43.2,13.3-59.4,28c-17.1,15.6-30.9,34.3-40.6,55.3C704.5,471.1,700.4,483.6,697.7,496.4z"
	/>
<path class="st6" d="M735.2,263.3c-3.4,2.3-4.6,6.7-5,10.8c-1.8,17.4,5.3,34.5,4.8,52c-0.4,13.9-5.6,27.1-10.7,40
	c-8.7,22-13.2,45.9-15,69.5c-1.8,23.6-4.3,48.2-17,68.2c-2.9,4.5-6.2,8.7-9.1,13.3c-3,4.8-5.3,9.9-7.9,14.8
	c-7.7,14.6-17.6,27.9-29.4,39.5c-3.5,3.4-7.1,6.6-11.5,8.6c-5.7,2.5-12.2,2.6-18,0.2c-5.9-2.4-10.9-8-11.1-14.4
	c-0.2-5.7,3.2-10.9,6.6-15.5c11.6-15.5,24.9-29.7,39.8-42.2c2.7-2.3,5.5-4.6,6.9-7.8c1.6-3.7,0.9-8,1.1-12
	c0.3-6.4,2.8-12.6,4.3-18.8c6.1-25.5-4.7-53.3,4-78c1.9-5.5,4.8-10.7,5.5-16.5c0.5-4-0.5-8.6-3.1-11.6c-2.4-2.7-3.7-6.2-3.7-9.8
	c0-0.7,0-1.5,0.1-2.2c1.1-11.3,2.1-22.7,1.5-34c-0.6-11.4-2.8-22.8-8.1-32.9c-2.7-5.2-6.2-10.1-7.9-15.8c-2.7-9.1-0.2-19,3.8-27.7
	c3.1-6.8,7.3-13.2,13.2-17.8c10.9-8.6,27.1-9.6,39-2.5c8.8,5.2,14.8,14,19.6,23C731.6,250.3,735.2,255.8,735.2,263.3z"/>
<ellipse class="st6" cx="687.4" cy="270.1" rx="32.7" ry="51.3"/>
<path class="st8" d="M603.9,538.4c2,2.8,2.6,6.2,1.7,9.5c3.1,2.2,6.8,3.3,10.6,3.1c3.8-0.2,7.5-1.1,10.9-2.5c3-1.1,5.9-2.6,8.5-4.5
	c4.5-3.3,7.8-8.1,10.4-13.1c1.5-2.7,2.7-6.3,0.9-8.7c-0.7-0.8-1.6-1.5-2.6-2c-6.7-3.8-13.6-7.1-20.8-9.9c-2-0.9-4.1-1.4-6.3-1.4
	c-2.7,0.1-5.1,1.6-7.2,3.2c-4.7,3.7-8.6,8.4-11.2,13.8c-0.8,1.7-3.3,5.8-2,7.6c0.6,0.8,2.6,1.1,3.5,1.6
	C601.8,536,603,537.1,603.9,538.4z"/>
<path class="st9" d="M603.9,538.4c2,2.8,2.6,6.2,1.7,9.5c3.1,2.2,6.8,3.3,10.6,3.1c3.8-0.2,7.5-1.1,10.9-2.5c3-1.1,5.9-2.6,8.5-4.5
	c4.5-3.3,7.8-8.1,10.4-13.1c1.5-2.7,2.7-6.3,0.9-8.7c-0.7-0.8-1.6-1.5-2.6-2c-6.7-3.8-13.6-7.1-20.8-9.9c-2-0.9-4.1-1.4-6.3-1.4
	c-2.7,0.1-5.1,1.6-7.2,3.2c-4.7,3.7-8.6,8.4-11.2,13.8c-0.8,1.7-3.3,5.8-2,7.6c0.6,0.8,2.6,1.1,3.5,1.6
	C601.8,536,603,537.1,603.9,538.4z"/>
<path class="st7" d="M639.7,518.3c14.6,2.7,28.1,9.8,42.5,13.6c5.8,1.5,11.8,2.6,17.4,4.9c5.6,2.3,10.8,6.1,13.2,11.7
	c1,2.6,1.7,5.4,2,8.2c0.6,4,1.1,8.4-1.2,11.7c-2.5,3.5-7.2,4.2-11.4,4.7c-15.2,1.8-30.4,3.6-45.7,4.9c-3.1,0.2-6.2,0.6-9.2,1.1
	c-2.5,0.5-5,1.3-7.4,1.9c-3.2,0.8-6.5,1.2-9.8,1.7c-8.4,1.2-16.8,2.4-25.2,1.5c-3.8-0.4-8.1-1.7-9.8-5.1c-0.7-1.8-1-3.7-0.9-5.6
	c0-5.1-0.1-10.3,0-15.4c0.1-5.3,0.3-10.7,2.7-15.4c0.6-1.4,1.7-2.6,3.1-3.2c0.9-0.2,1.8-0.3,2.7-0.2c4.5,0.2,9.1,0.3,13.2,2.4
	c3.2,1.6,5.8,4.2,9,5.7c6.2,2.7,13.6,0.8,19.8,3.3c1.5-4.5,1.1-9,0-13.6s-2.6-9.1-3.1-13.8c0-1-0.2-2-0.6-3
	C640.6,519.1,640.8,518.2,639.7,518.3z"/>
<path class="st5" d="M639.7,518.3c14.6,2.7,28.1,9.8,42.5,13.6c5.8,1.5,11.8,2.6,17.4,4.9c5.6,2.3,10.8,6.1,13.2,11.7
	c1,2.6,1.7,5.4,2,8.2c0.6,4,1.1,8.4-1.2,11.7c-2.5,3.5-7.2,4.2-11.4,4.7c-15.2,1.8-30.4,3.6-45.7,4.9c-3.1,0.2-6.2,0.6-9.2,1.1
	c-2.5,0.5-5,1.3-7.4,1.9c-3.2,0.8-6.5,1.2-9.8,1.7c-8.4,1.2-16.8,2.4-25.2,1.5c-3.8-0.4-8.1-1.7-9.8-5.1c-0.7-1.8-1-3.7-0.9-5.6
	c0-5.1-0.1-10.3,0-15.4c0.1-5.3,0.3-10.7,2.7-15.4c0.6-1.4,1.7-2.6,3.1-3.2c0.9-0.2,1.8-0.3,2.7-0.2c4.5,0.2,9.1,0.3,13.2,2.4
	c3.2,1.6,5.8,4.2,9,5.7c6.2,2.7,13.6,0.8,19.8,3.3c1.5-4.5,1.1-9,0-13.6s-2.6-9.1-3.1-13.8c0-1-0.2-2-0.6-3
	C640.6,519.1,640.8,518.2,639.7,518.3z"/>
<path class="st8" d="M151.1,370.9c-2.9-0.9-5.8,1.7-7.4,4.3c-6.9,10.8-6.3,25.2-0.8,36.7c1.3,2.9,3.1,5.6,5.3,7.9
	c3,2.9,6.8,4.8,10.4,6.9c9.9,5.9,18.4,13.8,24.9,23.3c4.2,6.2,7.6,13.1,12.4,18.9c11.8,14.3,31.2,20.8,42.7,35.3
	c2.7,3.5,5.1,7.5,8.7,10c6.7,4.6,16,2.9,20.6-3.8c1.6-2.3,2.5-4.9,2.6-7.7c4.5-6.5,8.1-13.8,11.6-20.9c5.1-10.9,9.5-22.1,13-33.6
	c1.3-4.1,2.5-8.2,4.2-12.1c4.1-9.8,10.5-18.6,12.8-28.9c0.9-4.1,1.1-8.4,2.5-12.4c1.2-3.6,3.2-6.9,5.9-9.5c9-8.7,13.8-21.5,21-31.8
	c2.9-4.2,5.9-8.3,7.8-13s2.7-10.1,0.9-14.8c-1.8-4.8-6.5-8.6-11.5-8.3c-2.3,0.2-4.5,0.9-6.5,2c-7,3.3-13.4,7.7-19,13.1
	c-2.4,2.3-4.8,4.8-6.9,7.4c-10.6,12.6-18.8,27.9-19.6,44.4c-0.2,5.6,0.2,11.9-3.4,16.3c-9.9,12.1-13,28.6-21.5,41.8
	c-3.9,6.1-8.4,12.3-15,15.1c-1,0.5-2.1,0.7-3.2,0.6c-2.7-0.3-4.2-3.1-5.3-5.5c-4.4-9.5-9.5-18.7-15.2-27.5c-2.3-3.5-4.8-7-8.4-9
	c-2.5-1.4-5.3-2-7.7-3.6c-3.2-2.2-4.9-6.1-6.6-9.6c-5.5-11.5-12.4-22.3-20.6-32.1c-3.8-4.5-8.7-9.1-14.5-8.4
	C159.6,363,156.3,368.8,151.1,370.9z"/>
<path class="st9" d="M151.1,370.9c-2.9-0.9-5.8,1.7-7.4,4.3c-6.9,10.8-6.3,25.2-0.8,36.7c1.3,2.9,3.1,5.6,5.3,7.9
	c3,2.9,6.8,4.8,10.4,6.9c9.9,5.9,18.4,13.8,24.9,23.3c4.2,6.2,7.6,13.1,12.4,18.9c11.8,14.3,31.2,20.8,42.7,35.3
	c2.7,3.5,5.1,7.5,8.7,10c6.7,4.6,16,2.9,20.6-3.8c1.6-2.3,2.5-4.9,2.6-7.7c4.5-6.5,8.1-13.8,11.6-20.9c5.1-10.9,9.5-22.1,13-33.6
	c1.3-4.1,2.5-8.2,4.2-12.1c4.1-9.8,10.5-18.6,12.8-28.9c0.9-4.1,1.1-8.4,2.5-12.4c1.2-3.6,3.2-6.9,5.9-9.5c9-8.7,13.8-21.5,21-31.8
	c2.9-4.2,5.9-8.3,7.8-13s2.7-10.1,0.9-14.8c-1.8-4.8-6.5-8.6-11.5-8.3c-2.3,0.2-4.5,0.9-6.5,2c-7,3.3-13.4,7.7-19,13.1
	c-2.4,2.3-4.8,4.8-6.9,7.4c-10.6,12.6-18.8,27.9-19.6,44.4c-0.2,5.6,0.2,11.9-3.4,16.3c-9.9,12.1-13,28.6-21.5,41.8
	c-3.9,6.1-8.4,12.3-15,15.1c-1,0.5-2.1,0.7-3.2,0.6c-2.7-0.3-4.2-3.1-5.3-5.5c-4.4-9.5-9.5-18.7-15.2-27.5c-2.3-3.5-4.8-7-8.4-9
	c-2.5-1.4-5.3-2-7.7-3.6c-3.2-2.2-4.9-6.1-6.6-9.6c-5.5-11.5-12.4-22.3-20.6-32.1c-3.8-4.5-8.7-9.1-14.5-8.4
	C159.6,363,156.3,368.8,151.1,370.9z"/>
<ellipse class="st8" cx="150.5" cy="309" rx="22.8" ry="20.6"/>
<circle class="st8" cx="171.8" cy="304.8" r="8.2"/>
<ellipse class="st8" cx="153.4" cy="300.7" rx="31.4" ry="8.4"/>
<path class="st8" d="M125.4,298.9c0.8,2.4,1.4,4.9,1.8,7.4c-2.6-2.7-4.9-5.7-6.8-8.9c-0.5-0.6-0.9-1.2-1.2-1.9
	c-2.8-6.5-4.7-13.1-4.7-20.3c0-24.5,19.9-44.4,44.4-44.4s44.4,19.9,44.4,44.4c0,20-13.4,37.6-32.7,42.8c1.4-4.4,3.2-8.6,3.5-13.2
	c0.1-1.5-0.1-3-0.6-4.5c-0.8-1.5-1.9-2.8-3.3-3.8c-4.9-3.8-11.3-5.4-17.5-5.3c-6.2,0.3-12.4,1.7-18,4.3c-1.8,0.8-3.9,1.8-6.1,2.5
	C127.5,298.5,126.5,298.7,125.4,298.9z"/>
<path class="st8" d="M238.1,396c-2.8,4.6-8.9,5.9-14.3,5.5c-10-0.7-19-6.1-26.7-12.5c-7.7-6.4-14.4-13.8-22.3-20
	c-14.6-11.5-31.1-16.1-49.7-16.3c3.6-3,2.3-10.2,2.6-14.9c0.6-9.5,1.2-19.3,0-28.6c-0.1-1-0.3-2-0.4-3c0.3,0.3,0.6,0.6,0.9,0.9
	c11.3,10.8,27.4,14.9,42.4,10.8c-0.5,1.5-0.8,3-1.1,4.6c-1.1,6.7,0.7,13.5,2.5,20c1.1,3.9,2.3,8.1,5.5,10.6c2.1,1.6,4.7,2.2,7.2,3.1
	c4.9,1.7,9.5,4.3,13.4,7.8c2.7,2.4,5.2,5.2,8.1,7.3c2.8,1.8,5.7,3.3,8.8,4.5c7.5,3.5,14.6,7.7,21.1,12.8c1.2,0.8,2.2,1.9,2.7,3.3
	C239.2,393.3,238.9,394.8,238.1,396z"/>
<path class="st8" d="M289.1,479.8c-0.6,3.9-4.2,7-6.8,10.1c-6.9,8.4-14,16.8-21.7,24.4c-8.3,8.2-17.4,15.5-26.5,22.8l-11.8,9.4
	c-1.5,1.3-3.2,2.4-5,3c-2.2,0.5-4.5,0.3-6.5-0.8c-0.8-0.4-1.5-0.8-2.2-1.4c-2.4-1.9-4.2-4.5-6-7c-8-11.7-16-23.3-24-35
	c-2.9-4.2-5.7-8.4-8.4-12.7c-0.4-0.6-0.7-1.1-1.1-1.7c-2.5-3.9-5.1-7.8-7.7-11.5l-14.2-6.7l-1.9-0.9l-2.2-1
	c-2.9-1.4-5.9-2.8-8.3-4.9c-2.3-2.2-4.3-4.8-5.7-7.6c-2.8-5.3-5.3-10.7-7.5-16.3c-6.1-15.3-11.4-31.2-11.6-47.6
	c-0.2-14.5,4.1-29.5,13.7-40.1c1.3-1.5,2.7-2.8,4.2-4.1c1.9-1.5,3.8-2.5,6.1-2.1c2.4,0.3,4.6,0.7,6.9,1.1c6.3,1.1,12.5,2.4,18.7,4
	c5.6,1.4,11.4,3.1,17,1.9c0.9-0.2,1.8-0.4,2.7-0.7c0.7-0.2,1.5-0.4,2.2-0.5c0.4-0.1,0.8-0.1,1.3-0.1c3-0.2,5.9,1,8.6,2.2
	c5.3,2.3,10.7,4.7,14.7,8.8c2.4,2.5,4.1,5.6,6.6,7.9c3.4,3.2,7.9,4.8,11.9,7c0.8,0.4,1.5,0.9,2.3,1.4c1.6,1.2,3,2.6,4.3,4.1l0,0
	c5.2,6.2,8.4,14.5,14.1,20.7c4.6,4.9,8.7,10.4,12,16.2c0.5,1,1.1,2,1.6,3c0.9,1.7,1.7,3.4,2.4,5.1c0.2,0.4,0.4,0.9,0.6,1.3
	c1.1,2.6,2,5.2,2.8,7.9c2,6.5,3.3,13.6,7.6,18.8c3,3.6,7.3,6.1,10.8,9.2c2.3,1.9,4.1,4.4,5.3,7.2
	C289.2,476.3,289.4,478.1,289.1,479.8z"/>
<path class="st5" d="M265.1,427.9c-1,1.3-2,2.5-3.1,3.7c-0.2,0.2-0.4,0.4-0.6,0.7c-9.1,10.6-19.5,20.1-31,28.1
	c-7.1,5-14.6,9.4-22.1,13.8l-13.8,8.1c-5.8,3.4-11.6,6.8-18.1,8.8c-2.1,0.6-4.2,1.1-6.3,1.7c-0.4-0.6-0.7-1.1-1.1-1.7
	c-2.5-3.9-5.1-7.8-7.7-11.5l-14.2-6.7c7.9-5,14.8-11.2,20.6-18.5c8.6-10.7,15.3-22.8,21.8-34.9c1.2-1.9,2.1-4,2.7-6.2
	c0.9-3.6,0.1-7.4-0.9-11c-3.9-12.8-12.1-23.8-23.2-31.2c-7.8-5.2-16.6-8.3-25.4-11.4c-6.1-2.1-12.9-4.2-19.1-3.3
	c1.3-1.5,2.7-2.8,4.2-4.1c1.9-1.6,3.8-2.5,6.1-2.1c2.4,0.3,4.6,0.7,6.9,1.1c4.6,1.4,9.2,3.1,13.7,4.9c3,1.1,5.9,2.4,8.6,3.9
	c2.8,1.7,5.4,3.6,8,5.6c7.5,5.7,15.4,10.9,23.6,15.5c9.5,5.2,19.5,9.5,29.5,13.8c1.1,0.5,2.2,0.8,3.4,0.9c1.2,0,2.3-0.8,2.6-2
	c0-0.6-0.1-1.3-0.4-1.8c-1.7-3.5-5.7-5.3-9.2-7c-14.7-7.1-27.7-17.4-40.5-27.6c-0.3-0.2-0.6-0.5-0.8-0.9l2.2-0.5
	c14.4,10.3,29.5,19.5,45.3,27.3c0.8,0.4,1.7,0.8,2.5,1.2c0.6,0.3,1.2,0.6,1.8,0.9l0,0c4.3,2.1,8.5,4.3,11.7,7.8
	c2.1,2.4,3.8,5,5.2,7.9c3.5,6.7,6.6,13.6,9,20.8c0,0.2,0.1,0.3,0.2,0.4c0.3,1.1,0.9,2.1,1.6,3c0.3,0.3,0.6,0.5,0.9,0.7
	C261.5,426.7,263.7,426.6,265.1,427.9z"/>
<path class="st2" d="M181.6,353.9c14.4,10.3,29.5,19.5,45.3,27.3l2.5,1.3c4.8,2.4,9.9,4.7,13.6,8.6c2.1,2.4,3.8,5,5.2,7.9
	c3.5,6.7,6.6,13.6,9,20.8c0.6,1.6,1.2,3.3,2.7,4.1c1.5,0.8,3.8,0.8,5.1,2c-1.2,1.5-2.4,2.9-3.6,4.3c-9.1,10.7-19.5,20.1-31,28.1
	c-7.1,5-14.6,9.4-22.1,13.8l-13.8,8.1c-5.8,3.4-11.6,6.8-18.1,8.8c-2.4,0.7-5,1.3-7.4,2c-2.5-3.9-5.1-7.8-7.7-11.5l-16.1-7.5
	c8.6-4.9,16.2-11.9,22.5-19.6c8.6-10.7,15.3-22.8,21.8-34.9c1.2-2,2.1-4,2.7-6.2c0.9-3.6,0.1-7.4-0.9-11
	c-3.9-12.7-12.1-23.7-23.1-31.2c-7.8-5.2-16.6-8.3-25.4-11.4c-6.1-2.1-12.9-4.2-19.1-3.3c1.3-1.5,2.7-2.8,4.2-4.1
	c1.9-1.5,3.8-2.5,6.1-2.1c2.4,0.3,4.6,0.7,6.9,1.1c4.6,1.4,9.2,3.1,13.7,4.9c3,1.1,5.9,2.4,8.6,3.9c2.8,1.7,5.4,3.6,8,5.6
	c7.5,5.7,15.4,10.9,23.7,15.4c9.5,5.3,19.5,9.6,29.5,13.8c1.1,0.5,2.2,0.8,3.4,0.9c1.2,0,2.3-0.8,2.6-2c0-0.6-0.1-1.3-0.4-1.8
	c-1.7-3.5-5.7-5.3-9.2-7c-14.7-7.1-27.7-17.4-40.5-27.7c-0.3-0.2-0.6-0.5-0.8-0.9L181.6,353.9z"/>
<circle class="st2" cx="302.7" cy="346.5" r="54.3"/>
<path class="st7" d="M356.7,562.5c10.2-3.2,20.5-6.4,29.4-12.3c6.3-4.1,11.7-9.4,17.4-14.2c4.3-3.7,8.7-7.1,12.7-11.2
	c3.5-3.8,6.8-7.8,9.9-11.9c6.9-9.1,14.1-18,21.5-26.7c4-4.7,8.2-9.4,13.7-12c9.8-4.6,21.4-1.5,31.8,1.7c15.6,4.8,31,9.8,45.6,17
	c8.3,4.1,16.3,8.7,24.7,12.7c15.3,7.2,31.5,12.2,47.7,17.1c1.2,0.5,2.5,0.6,3.8,0.3c0.9-0.4,1.7-1.1,2.3-1.9c2.1-2.6,3.8-5.5,5-8.6
	c0.5-0.7,0.3-1.7-0.4-2.2c-6.9-6.7-15.9-10.9-24.3-15.7c-6.7-3.8-13.1-8.1-19.4-12.4c-6.1-4.1-12.3-8.3-17.5-13.5
	c-2.6-2.7-4.9-5.6-7.7-8.1c-2.5-2-5.1-3.9-7.9-5.5c-12.3-7.9-24.1-16.6-35.2-26.1c-8.5-7.2-15.4-16.5-24.4-23
	c-5.5-4-12-7.6-18.8-6.9c-8.2,0.9-14.3,7.8-20.1,13.7c-19.3,20.1-43.7,34.4-65.3,52.1c-17.6,14.4-34.1,31.5-55.5,39.1
	c1,3.2,1.3,6.4,2.3,9.5c1.2,4.4,2.7,8.7,4.5,12.8c1.8,3.7,3.8,7.3,6,10.7l8.6,14c1.7,2.9,3.5,5.7,6,8
	C354.2,560.3,356.7,560.7,356.7,562.5z"/>
<path class="st5" d="M356.7,562.5c10.2-3.2,20.5-6.4,29.4-12.3c6.3-4.1,11.7-9.4,17.4-14.2c4.3-3.7,8.7-7.1,12.7-11.2
	c3.5-3.8,6.8-7.8,9.9-11.9c6.9-9.1,14.1-18,21.5-26.7c4-4.7,8.2-9.4,13.7-12c9.8-4.6,21.4-1.5,31.8,1.7c15.6,4.8,31,9.8,45.6,17
	c8.3,4.1,16.3,8.7,24.7,12.7c15.3,7.2,31.5,12.2,47.7,17.1c1.2,0.5,2.5,0.6,3.8,0.3c0.9-0.4,1.7-1.1,2.3-1.9c2.1-2.6,3.8-5.5,5-8.6
	c0.5-0.7,0.3-1.7-0.4-2.2c-6.9-6.7-15.9-10.9-24.3-15.7c-6.7-3.8-13.1-8.1-19.4-12.4c-6.1-4.1-12.3-8.3-17.5-13.5
	c-2.6-2.7-4.9-5.6-7.7-8.1c-2.5-2-5.1-3.9-7.9-5.5c-12.3-7.9-24.1-16.6-35.2-26.1c-8.5-7.2-15.4-16.5-24.4-23
	c-5.5-4-12-7.6-18.8-6.9c-8.2,0.9-14.3,7.8-20.1,13.7c-19.3,20.1-43.7,34.4-65.3,52.1c-17.6,14.4-34.1,31.5-55.5,39.1
	c1,3.2,1.3,6.4,2.3,9.5c1.2,4.4,2.7,8.7,4.5,12.8c1.8,3.7,3.8,7.3,6,10.7l8.6,14c1.7,2.9,3.5,5.7,6,8
	C354.2,560.3,356.7,560.7,356.7,562.5z"/>
<path class="st8" d="M593.4,546.1c2,2.8,2.6,6.2,1.7,9.5c3.1,2.2,6.8,3.3,10.6,3.1c3.8-0.2,7.5-1.1,11-2.5c3-1.1,5.9-2.6,8.5-4.5
	c4.5-3.3,7.8-8.1,10.4-13.1c1.5-2.7,2.7-6.3,0.8-8.7c-0.7-0.8-1.6-1.5-2.6-2c-6.6-3.8-13.6-7.1-20.7-9.9c-2-0.9-4.1-1.4-6.3-1.4
	c-2.7,0.1-5.1,1.6-7.2,3.2c-4.7,3.7-8.6,8.4-11.2,13.8c-0.8,1.7-3.3,5.8-2.1,7.6c0.6,0.8,2.6,1.1,3.5,1.6
	C591.3,543.7,592.5,544.8,593.4,546.1z"/>
<path class="st7" d="M633,525.6c14.6,2.7,28.1,9.8,42.5,13.6c5.8,1.5,11.8,2.6,17.4,4.9c5.6,2.3,10.8,6.1,13.2,11.7
	c1,2.6,1.7,5.4,2,8.2c0.6,4,1.1,8.4-1.2,11.7c-2.5,3.5-7.2,4.2-11.4,4.7c-15.2,1.8-30.4,3.6-45.7,4.9c-3.1,0.2-6.2,0.6-9.2,1.1
	c-2.5,0.5-5,1.3-7.4,1.9c-3.2,0.8-6.5,1.2-9.8,1.7c-8.4,1.2-16.8,2.4-25.2,1.5c-3.8-0.4-8.1-1.7-9.8-5.1c-0.7-1.8-1-3.7-0.9-5.6
	c0-5.1-0.1-10.3,0-15.4c0.1-5.3,0.3-10.7,2.7-15.4c0.6-1.4,1.7-2.6,3.1-3.2c0.9-0.2,1.8-0.3,2.7-0.2c4.5,0.2,9.1,0.3,13.2,2.4
	c3.2,1.6,5.5-3.1,8.7-1.7c6.2,2.7,2-5.5,8.2-3c1.5-4.5,7.6-1.8,6.6-6.4s2.8-2.6,2.3-7.3c0-1-0.2-2-0.6-3
	C633.9,526.4,634,525.4,633,525.6z"/>
<path class="st5" d="M194.8,249c-3.4,2-7.5,1.6-11.4,1.5c-3.4-0.1-6.8,0.1-10.2,0.5c-1.2,0.1-2.4,0.4-3.5,0.9
	c-1.4,0.9-2.6,2.3-3.3,3.8c-1.4,2.7-2.3,5.5-2.8,8.5c-0.5,3.3-0.4,7-2.5,9.6c-2.8,3.6-7.2,3-11.2,3.7c-3.5,0.7-6.8,1.9-9.9,3.8
	c-6.1,3.7-10.2,9.8-11.4,16.8c-0.1,0.8-0.2,1.6-0.2,2.4c-0.1,2.2,0.1,4.5-0.2,6.7c-0.1,0.5-0.2,1.1-0.3,1.6c0,0.2-0.1,0.3-0.1,0.5
	c-0.1-1-0.3-2-0.4-3c-2.6-2.7-4.9-5.7-6.8-8.9c-0.5-0.6-0.9-1.2-1.2-1.9c-2.8-6.5-4.7-13.1-4.7-20.3c0-24.5,19.9-44.4,44.4-44.4
	C173.1,230.8,186.4,237.5,194.8,249L194.8,249z"/>
<path class="st7" d="M197.6,232c-2.2-5.1-6.9-8.8-11.7-11.7c-9.5-5.7-20.5-9.2-31.6-9.4c-5.6,0-11.2,0.6-16.7,1.7
	c-5.3,1-10.6,2.4-15.6,4.4c-8.3,3.5-15.7,8.9-21.5,15.8c-1.2,0.1-2.4,0.3-3.6,0.6c-4.7,1.2-8.9,3.8-12.8,6.7
	c-3.2,2.3-6.1,5.1-8.5,8.3c-2.8,4.1-4.8,8.7-5.7,13.5c-3.3,15.2,0.8,30.8,3.7,46.1c3,15.2,4.7,31.9-2.6,45.6
	c-2.8,5.2-6.7,9.6-9.6,14.6c-2.9,5-4.9,11.1-3.2,16.7c2,6.8,8.7,11.1,12.2,17.3c4.4,8.2,2.7,18.4-4,24.8c5.5,1.9,11.6-0.1,16.5-3.2
	c3.9-2.3,7.3-5.4,9.7-9.2c6.2-10.1,3.5-23.1,5.6-34.7c2.9-15.2,14.5-28.8,12.9-44.2c-1.1-10.4-7.9-19-13.3-27.9
	c-3.6-5.9-6.6-12.2-9-18.7c-1.7-4.6-3.1-9.6-2.3-14.5c0.3-1.5,0.7-2.9,1.4-4.3c0,0.2,0,0.3,0,0.5c0.1,4.5,1.1,8.9,3,13
	c6.4,13.1,23.6,18,30.8,30.7c2.1-2.3,4.3-4.7,5.2-7.7c0.8-2.7,0.4-5.5,0.5-8.3c0.3-7.8,5-15.1,11.7-19.1c3-1.8,6.4-3.1,9.9-3.8
	c4-0.7,8.4-0.2,11.2-3.8c2.1-2.6,2-6.3,2.5-9.6c0.4-3,1.4-5.8,2.8-8.5c0.7-1.6,1.8-2.9,3.3-3.8c1.1-0.5,2.3-0.9,3.5-0.9
	c3.4-0.4,6.8-0.6,10.2-0.5c4,0.1,8.2,0.4,11.6-1.6C198.7,244.1,199.8,237.1,197.6,232z"/>
<path class="st5" d="M680.8,184.2c0,0.1,0,0.2,0,0.4c-1.6,13.5-14.5,12.9-17.6,34.1c-1.2,8.3-13.8,9.9-22.1,12.1
	c-3.6-1.2-7.2-2.3-10.8-3.6c-8.3-3-2.5-7.5,1.1-12.3c11.6-15.9,13.8-37.5,27-52.1c4.8,9.2,12.5,16.6,21.9,21.1
	C680.4,184.1,680.6,184.1,680.8,184.2z"/>
<path class="st6" d="M681.1,176.5c0,2-0.1,4.1-0.3,6.1c-3.4,29.8-30.3,51.2-60,47.8c-29.8-3.4-51.2-30.3-47.8-60
	c3.4-29.8,30.3-51.2,60-47.8C660.3,125.7,681.1,148.9,681.1,176.5z"/>
<path class="st2" d="M702.9,182.6c6.2-0.3,12.2,2.1,17.9,4.5c22.8,9.5,45.7,19.1,66.1,33.1c10,6.9,19.3,14.8,28.6,22.6l38.1,32.4
	c7.3,6.2,14.7,12.5,20.6,20.1c3.5,4.7,6.6,9.6,9.5,14.7l5.7,9.6c2.3,3.8,4.3,7.7,6.1,11.8c2.9,7.4,4,16.1,9.8,21.6
	c3.9,3.7,9.4,5.1,14.2,7.6s9.5,6.6,9.4,12c0,3.5-2.1,6.6-3.7,9.7c-3.3,6.5-4.6,13.8-3.9,21l-62.3-47.6c-2.5-1.9-5.1-3.8-8.1-4.5
	c-4-0.9-8,0.6-11.8,2c-30.1,10.6-62.1,14.8-94,12.4c-14.1-1.1-28.4-3.6-40.7-10.5c-6.8-3.8-12.9-8.8-18.8-13.8
	c-7.5-6.3-15-12.5-21.6-19.7c-1.7-1.9-3.5-4-4-6.6c-0.3-1.9,0.1-3.7,0.2-5.6c1.1-13.1-9.8-24-13.1-36.8c-3-12.2,1.1-25.1,10.6-33.4
	c7.4,6.5,7.2,17.9,6.3,27.8c-1.2,13.2,2.5,19.8,1.4,33c4.7-0.2,3.8,2.9,5.9-1.4c2-4.3,2.4-9.1,2.8-13.8c1.4-17,3.1-33.9,5.1-50.9
	c1-8.5,2.1-16.9,3.2-25.4c0.7-5.1,0.6-10,3.3-14.5C689,187.6,695.4,182.9,702.9,182.6z"/>
<path class="st6" d="M711,198c4-1.2,8.2-0.1,12.2,1.1c7,2.1,14,4.3,21,6.6c5.7,1.9,11.4,3.9,16.2,7.5c5,3.7,8.6,8.8,12.3,13.9
	c2.6,3.6,5.2,7.3,6.9,11.5c2.2,5.4,2.9,11.3,3.5,17.2c0.4,2.5,0.4,5.1-0.1,7.6c-0.8,2.7-2.2,5.2-4.2,7.3c-3,3.5-6.4,6.6-10.3,9.2
	c-10.2,6.8-22.5,9.7-34.5,12.2c-10.7,2.2-21.5,4.3-32.4,5c-4.2,0.3-9.2,0-11.8-3.4c-0.7-1-1.3-2.2-1.7-3.4
	c-6.4-16.9-9.1-34.9-8.1-52.9c0.1-3.3,0.6-6.5,1.5-9.7c0.9-2.5,2-5,3.3-7.3c3.3-6.2,6.7-12.6,12.4-16.8c5.9-4.3,13.6-5.7,20.9-5.4"
	/>
<path class="st5" d="M750.9,262.1c-3.4,2.3-4.6,6.7-5,10.8c-1.8,17.4,5.3,34.5,4.8,52c-0.4,13.8-5.6,27.1-10.7,40
	c-8.7,22-13.2,45.9-15,69.5c-1.8,23.6-4.3,48.2-17,68.2c-2.9,4.5-6.2,8.7-9.1,13.3c-3,4.8-5.3,9.9-7.9,14.8
	c-7.7,14.6-17.6,27.9-29.4,39.5c-3.5,3.4-7.1,6.6-11.5,8.6c-5.7,2.5-12.2,2.6-18,0.2c-5.9-2.4-10.9-8-11.1-14.4
	c-0.2-5.7,3.2-10.9,6.6-15.5c11.6-15.5,24.9-29.7,39.8-42.2c2.7-2.3,5.5-4.6,6.9-7.8c1.6-3.7,0.9-8,1.1-12
	c0.3-6.4,2.8-12.6,4.3-18.8c6.1-25.5-4.7-53.3,4-78c1.9-5.5,4.8-10.7,5.5-16.5c0.5-4-0.5-8.6-3.1-11.6c-2.4-2.7-3.7-6.2-3.8-9.8
	c0-0.7,0-1.5,0.1-2.2c1.1-11.3,2.1-22.7,1.5-34c-0.6-11.4-2.8-22.8-8.1-32.9c-2.7-5.2-6.2-10.1-7.9-15.8c-2.7-9.1-0.2-19,3.8-27.7
	c3.1-6.8,7.3-13.2,13.2-17.8c10.9-8.6,27.1-9.6,39-2.5c8.8,5.2,14.8,14,19.6,23C747.3,249.1,751,254.6,750.9,262.1z"/>
<path class="st6" d="M752.8,262.1c-3.4,2.3-4.6,6.7-5,10.8c-1.8,17.4,5.3,34.5,4.8,52c-0.4,13.8-5.6,27.1-10.7,40
	c-8.7,22-13.2,45.9-15,69.5c-1.8,23.6-4.3,48.2-17,68.2c-2.9,4.5-6.2,8.7-9.1,13.3c-2.9,4.8-5.3,9.9-7.9,14.8
	c-7.7,14.6-17.6,27.9-29.4,39.5c-3.5,3.4-7.1,6.6-11.5,8.6c-5.7,2.5-12.2,2.6-18,0.2c-5.9-2.4-10.9-8-11.1-14.4
	c-0.2-5.7,3.2-10.9,6.6-15.5c11.6-15.5,24.9-29.7,39.8-42.2c2.7-2.3,5.5-4.6,6.9-7.8c1.6-3.7,0.9-8,1.1-12
	c0.3-6.4,2.8-12.6,4.3-18.8c6.1-25.5-4.7-53.3,4-78c1.9-5.5,4.8-10.7,5.5-16.5c0.5-4-0.5-8.6-3.1-11.6c-2.4-2.7-3.8-6.2-3.9-9.8
	c0-0.7,0-1.5,0.1-2.2c1-11.3,2.1-22.7,1.5-34s-2.8-22.8-8.1-32.9c-2.7-5.2-6.2-10.1-7.9-15.8c-2.7-9.1-0.2-19,3.8-27.7
	c3.1-6.8,7.3-13.2,13.2-17.8c10.9-8.6,27.1-9.6,39-2.5c8.8,5.2,14.8,14,19.6,23C749.2,249.1,752.9,254.6,752.8,262.1z"/>
<path class="st7" d="M840.3,487.9l-0.7,0.2"/>
<path class="st7" d="M688.8,526.5c0-0.3,0.1-0.6,0.2-0.9"/>
<path class="st2" d="M874.2,467.1c2.5-2.9,6.3-4.2,10-5.1c5.9-1.5,12-2.5,18.2-3c3.8-0.4,7.7-0.2,11.4,0.7c3.7,1,7.2,3.2,9,6.5
	c1.7,2.9,1.9,6.4,2.1,9.8c0.4,6.9,0.9,13.8-0.3,20.6c-0.7,4.3-2.1,8.5-3,12.8c-2.9,14.1-0.4,28.6-0.6,43c-0.1,3.1-0.3,6.2-1.5,9
	c-1.4,2.9-3.8,5.2-6.3,7.4c-2.7,2.4-5.4,4.8-8.6,6.4c-4.7,2.4-10.2,2.8-15.5,2.9c-3.2,0.1-6.5,0.1-9.5-1.1c-3-1.2-5.6-3.8-5.9-7.1
	c-0.3-5.5,5.8-9.1,7.6-14.2c1.4-4.1-0.2-8.7-2.4-12.5c-3.6-6-8.7-10.9-14.8-14.3c-2.3-1.2-4.7-2.3-6.6-4c-1.9-1.8-3.2-4.5-2.4-6.9
	c1-2.9,4.4-4.3,7.5-4.6s6.3-0.1,9.1-1.4c2.5-1.2,4.2-3.6,5.4-6.1c2.5-5.3,2.9-11.4,1-16.9c-0.7-2.1-1.8-4.1-3.2-5.9
	c-1.3-1.7-4-3.1-4.9-4.9C868.5,475,872,469.7,874.2,467.1z"/>
<path class="st5" d="M824,341.8c-14.3-12.6-34.2-16.1-52.9-19.9c-9.6-2-19.2-4.2-28.7-6.6c-6.3-1.6-12.5-3.3-19-3.7
	c-6.5-0.4-13.2,0.5-18.7,3.8c-5.6,3.3-9.7,9.3-9.8,15.7c0,2.6,0.6,5.1,0.4,7.7c-0.3,4.1-2.6,7.8-4.2,11.6c-2.4,6.1-2.8,12.8-1,19.2
	c2.8,10.1,10.7,19,10,29.4c-1.1,17.4-0.8,35.7,2.8,52.7c3.6,17.1,8,34.2,7.9,51.7c-0.1,17.5-5.4,35.8-18.4,47.5
	c8.8,8.3,19.7,14.2,31.4,17.2c10.1,2.5,22,2.3,29.2-5.2c1.7-1.7,3-4,2.7-6.4c-0.4-1.5-1-2.9-1.9-4.2c-4.9-8.8-4.3-19.7-2.1-29.5
	c2.2-9.8,5.9-19.4,6.8-29.4c0.7-7.3-0.1-14.7,1.3-21.9c1.1-5.5,3.4-10.7,4.8-16.1c4.1-16.1-0.2-33.1-4.5-49.1
	c3.6,8.3,10.4,14.7,17.4,20.3c10.7,8.5,23.5,16,37.1,14.5c12.1-1.3,22.3-9.7,29.4-19.6c0.1-11.4,4-22.1,3.3-33.5
	c-0.5-5-1.3-9.9-2.7-14.7c-1.3-5.4-2.7-10.8-5.2-15.8C836.1,350.8,829.5,346.7,824,341.8z"/>
<path class="st6" d="M826.9,341.8c-14.3-12.6-34.2-16.1-52.9-19.9c-9.6-2-19.2-4.2-28.7-6.6c-6.3-1.6-12.5-3.3-19-3.7
	c-6.5-0.4-13.2,0.5-18.7,3.8c-5.6,3.3-9.7,9.3-9.8,15.7c0,2.6,0.6,5.1,0.4,7.7c-0.3,4.1-2.6,7.8-4.2,11.6c-2.4,6.1-2.8,12.8-1,19.2
	c2.8,10.1,10.7,19,10,29.4c-1.2,17.4-0.8,35.7,2.8,52.7c3.6,17.1,8,34.2,7.9,51.7s-5.4,35.8-18.5,47.4c8.8,8.3,19.7,14.2,31.4,17.2
	c10.1,2.5,22,2.3,29.2-5.2c1.7-1.7,3-4,2.7-6.4c-0.4-1.5-1-2.9-1.9-4.2c-4.9-8.8-4.3-19.7-2.1-29.5c2.2-9.8,5.9-19.4,6.9-29.4
	c0.7-7.3-0.1-14.7,1.3-21.9c1.1-5.5,3.4-10.7,4.8-16.1c4.1-16.1-0.2-33.1-4.5-49.1c3.6,8.3,10.4,14.7,17.4,20.3
	c10.7,8.5,23.5,16,37.1,14.5c12.1-1.3,22.3-9.7,29.4-19.6c0.1-11.4,4-22.1,3.3-33.5c-0.5-5-1.3-9.9-2.7-14.7
	c-1.3-5.4-2.7-10.8-5.2-15.8C839.2,350.8,832.4,346.7,826.9,341.8z"/>
<path class="st2" d="M727.7,560c-6.3-3.9-11.8-9-16.1-15.1c-1.5-2.2-2.9-4.5-4.8-6.3c-1.9-1.9-4.5-3.2-7.2-2.9
	c-3,0.3-5.4,2.6-7.3,4.9c-5.1,6.3-8.4,14-14,19.9c-6.5,6.8-15.7,10.4-24.8,12.7c-9.1,2.3-18.5,3.5-27.4,6.5
	c-2.8,0.9-5.7,2.2-7.3,4.7c-1.9,3.2-0.9,7.5,1.2,10.7c3.7,6.1,10.1,10,16.8,12.3c6.7,2.3,13.8,3.2,20.8,4.6
	c12.3,2.4,25,6.3,37.2,3.6c4.9-1.1,9.5-3.2,14.5-4.1c11.2-2.1,22.8,2.1,34.1,0.4c5.5-0.8,10.6-3,15.6-5.5c2.5-1.1,4.7-2.6,6.7-4.5
	c1.8-2,2.9-4.9,2.2-7.4c-0.4-1.5-1.4-2.8-2-4.2c-1-2.2-1.2-4.6-1.5-7c-0.9-9.1-2.5-18.2-4.7-27c-0.8-3.1-1.9-6.6-4.8-7.9
	c-0.6-0.3-1.3-0.4-1.9-0.2c-1,0.4-1.4,1.6-1.7,2.7c-2.6,8.7-11.7,13.7-20.5,11.2c-3.2-0.9-6.1-2.9-8.2-5.5"/>
<path class="st5" d="M681.1,176.5c0,2-0.1,4.1-0.3,6.1c-5.5,0.8-11.1-1-15-5c-1.8-1.9-3.2-4.3-5-6.2c-1.8-2-4.3-3.6-6.9-3.4
	c-2.2,0.2-4.1,1.6-5.6,3.2c-2,2.1-3.4,4.7-4.2,7.4c-0.6,2-0.9,4.2-2.5,5.5c-1.6,1.3-3.6,1.2-5.6,1.1c-2.5-0.1-5.1-0.2-7.3-1.4
	c-4.2-2.2-5.6-7.4-7.1-11.8c-2.6-7.5-8.4-21.7-17.5-23.2c-4.3-0.7-9.6,1.6-13,4c-5.1,3.7-8.9,6.1-15.5,6l0,0
	c9.7-28.4,40.6-43.5,68.9-33.8C666.4,132.7,681.1,153.3,681.1,176.5L681.1,176.5z"/>
<path class="st7" d="M575.5,156.9c-1.6,0-3.1-0.2-4.6-0.7c-4.2-1.6-6.2-6.5-6.6-11c-0.6-6.8,1.7-13.5,4-20c0.5-1.4,1.1-2.9,2.3-3.7
	c1-0.5,2.1-0.8,3.3-0.8c6.2-0.9,11.6-4.7,16.2-8.9c4.6-4.3,8.7-9.1,13.8-12.6c13.6-9.4,33.7-7.6,45.5,3.9
	c4.7,4.6,8.6,10.8,15.1,11.8c3.7,0.6,7.7-0.7,11.2,0.7c2.6,1,4.4,3.3,5.9,5.6c4.8,7.6,7.1,16.5,7.8,25.5s0.1,17.9-0.6,26.9
	c0,1.3-0.3,2.7-1,3.8c-0.6,0.7-1.2,1.2-2,1.6c-6.7,3.3-14.9,2-20.1-3.4c-1.8-1.9-3.2-4.3-5-6.2c-1.8-2-4.3-3.6-6.9-3.4
	c-2.2,0.2-4.1,1.6-5.6,3.2c-2,2.1-3.4,4.7-4.2,7.4c-0.6,2-0.9,4.2-2.5,5.5s-3.6,1.2-5.6,1.2c-2.5-0.1-5.1-0.2-7.3-1.4
	c-4.2-2.2-5.6-7.4-7.1-11.8c-2.6-7.5-8.4-21.7-17.5-23.2c-4.3-0.7-9.6,1.6-13,4C585.8,154.6,582.1,157.1,575.5,156.9z"/>
<path class="st5" d="M289.1,479.8c-0.6,3.9-4.2,7-6.8,10.1c-6.9,8.4-14,16.8-21.7,24.4c-8.3,8.2-17.4,15.5-26.5,22.8l-11.8,9.4
	c-1.5,1.3-3.2,2.4-5,3c-2.2,0.5-4.5,0.3-6.5-0.8c0.2-0.3,0.4-0.7,0.6-1l14.2-23.7c2.8-4.7,4.6-8.9,7.8-13.3
	c4.8-6.5,9.6-13.1,15.5-18.6c7.4-7,17-12.1,25.8-17.2c1.3-3.8,6.6-4.9,10.3-3.1c1.3,0.7,2.6,1.6,3.6,2.7
	C289.1,476.3,289.4,478.1,289.1,479.8z"/>
<path class="st7" d="M226.5,525.1l-14.2,23.7c-0.6,1-1.2,2-0.9,3.1c0.3,0.9,0.9,1.7,1.7,2.2c5.4,4.4,11.4,9.1,13.2,15.9
	c1.2,4.8,0,10,1.1,14.9c2,8.8,10.8,14.1,19.1,17.5c18.7,7.6,39.4,10.5,59.3,6.9c19.8-3.5,38.7-13.6,51.5-29.2
	c3.9-4.8,7.3-10,11.1-14.9c10.4-13.6,23.5-24.8,36.6-35.9c16.8-14.2,26.7-35.5,41.5-51.9c2.7-3,5.7-6.1,9.5-7
	c2.2-0.5,5.2,0.3,5.3,2.5c0.2,4.3,3.7,7.9,6.1,11.5c9,13.7,18.3,27.8,32.2,36.5c7.6,4.8,16.2,7.7,24.7,10.4
	c21.7,6.8,43.8,12.1,65.9,17.4c1.1-2.2,2.5-4.3,4-6.3c2.3-2.8,5.3-5,7.6-7.8c4.2-5.1,5.7-11.8,7-18.3c-13.2-8.1-26.8-16.4-39.8-24.8
	c-6.6-4.2-13.2-8.5-18.5-14.2c-3.5-3.8-6.4-8-9.8-11.8c-3.5-3.7-7.4-7.1-11.4-10.1l-31.1-24.9c-8.9-7.2-18.1-14.7-26.8-22.1
	c-4.9-4.2-10.4-8.6-16.8-8.7c-5.5-0.2-10.6,2.8-15.3,5.6c-27.8,16.7-56.1,32.6-84.7,47.7c-5.8,3.1-11.6,6.1-17.2,9.6
	c-10.8,6.8-20.3,15.4-28.3,25.4c-1.5,1.8-3.3,3.9-5.6,3.6c-0.6-0.1-1.3-0.3-1.8-0.6c-3.6-1.9-5.8-5.6-7.8-9.1c-2-3.5-4.3-7.2-7.9-9
	s-9-0.8-10.3,3.1c-8.9,5.2-18.4,10.3-25.9,17.3c-5.9,5.5-10.7,12.1-15.5,18.6C231.1,516.2,229.3,520.4,226.5,525.1z"/>
<path class="st5" d="M203.3,380.2c0,0,14.2,6.3,24.5,13.5"/>
<path class="st7" d="M916.5,393.2c0.3,8.1,0.5,16.2,0.4,24.2c-0.1,4.3-0.2,8.7-2.3,12.5c-1.5,2.7-3.8,4.8-6.1,6.8l-14.2,12.9
	c-4.4,4-9.2,8.2-15.1,9.2c-6.7,1.1-13.3-2.1-19.8-4.3c-6.5-2.2-13.4-3.3-20.2-3.4c-3.9,0-7.9,0.3-11.8-0.3c-2.8-0.5-5.6-1.3-8.2-2.3
	l-12.9-4.5c0.4-3.2,3.5-5.3,6.1-7.4c9.2-7.5,13.2-19.5,16.2-31c2.4-9,4-18.1,5-27.3c0.4-4.6,0.6-9.2-0.3-13.7
	c-0.9-3.6-2.2-7.1-3.8-10.5l-4.5-10.2c-2.6-5.8-7.8-8.3-13.1-11.7c8,3,17.7,4.2,23.8,10.2c1.2,1.3,2.6,2.5,4.1,3.3
	c1.7,0.8,3.5,0.9,5.3,1.2c9,1.3,16.7,7,24.1,12.2c9.1,6.4,18.5,12.4,28.1,18.1c4.3,2.5,8.8,5,12.4,8.5c3.6,3.5,6.5,8.1,6.7,13.1"/>
<path class="st5" d="M141.2,379.1c-11.3,2.2-17.2,15.6-16.6,27.1c0.6,10.3,4.9,20,11.9,27.5c4.7,5,10.6,8.8,14.9,14.2
	c6.3,7.9,8.5,18.4,14.2,26.8c4.1,6.1,9.8,10.9,15.6,15.5c13.2,10.5,26.8,20.5,40.8,29.9c5.7,3.8,11.9,7.7,18.8,7.5
	c6.5-0.1,12.4-3.9,16.6-8.8c4.2-4.9,6.9-10.9,9.7-16.8c9.9-21.5,19.8-43.3,24.5-66.5c1.5-7.3,2.5-14.8,5.8-21.5
	c2.6-5.2,6.4-9.6,9.9-14.3c8.1-11.1,13.8-23.8,16.7-37.2c1.9-8.8,2.5-18.2-0.6-26.5c-3.1-8.4-10.6-15.7-19.6-16.3
	c-7.1-0.5-14,3.1-18.8,8.4c-4.8,5.3-7.6,12-9.5,18.9c-2.7,9.8-3.8,20.1-3.1,30.3c0.6,8.2,2.2,16.5,0.8,24.6c-1,5.7-3.5,11.1-6,16.4
	c-6.4,13.6-12.9,27.4-22.5,38.9c-3.1,3.8-7.5,7.5-12.3,6.7c-6.7-1.2-8.4-9.6-11.7-15.6c-4-7.3-11.7-11.6-17.7-17.4
	c-8.5-8.2-13.6-19.2-19.7-29.4s-13.9-20.2-25.1-24.1s-26.1,1.1-28.9,12.6"/>
<path class="st5" d="M149.7,387c-11.3,2.2-25.8,3.7-25.1,15.2c0.6,10.3,4.9,20,11.9,27.5c4.7,5,10.6,8.8,14.9,14.2
	c6.3,7.9,8.5,18.4,14.2,26.8c4.1,6.1,9.8,10.9,15.6,15.5c13.2,10.5,26.8,20.5,40.8,29.9c5.7,3.8,11.9,7.7,18.8,7.5
	c6.5-0.1,12.4-3.9,16.6-8.8c4.2-4.9,6.9-10.9,9.7-16.8c9.9-21.5,19.8-43.3,24.5-66.5c1.5-7.3,2.5-14.8,5.8-21.5
	c2.6-5.2,6.4-9.6,9.9-14.3c8.1-11.1,13.8-23.8,16.7-37.2c1.9-8.8,2.5-18.2-0.6-26.6c-3.1-8.4-10.6-15.6-19.6-16.3
	c-7.1-0.5-14,3.1-18.8,8.4c-4.8,5.3-7.6,12-9.5,18.9c-2.7,9.8-3.8,20.1-3.1,30.3c0.6,8.2,2.2,16.5,0.8,24.6c-1,5.7-3.5,11.1-6,16.4
	c-6.4,13.6-12.9,27.4-22.5,38.9c-3.1,3.8-7.5,7.5-12.3,6.7c-6.7-1.2-8.4-9.6-11.7-15.6c-4-7.3-11.7-11.6-17.7-17.4
	c-8.5-8.2-13.6-19.2-19.7-29.4c-6.1-10.2-13.9-20.2-25.1-24.1s2.8,21.1-0.1,32.6"/>
<path class="st8" d="M141.2,377.1c-11.3,2.2-17.2,15.6-16.6,27.1c0.6,10.3,4.9,20,11.9,27.5c4.7,5,10.6,8.8,14.9,14.2
	c6.3,7.9,8.5,18.4,14.2,26.8c4.1,6.1,9.8,10.9,15.6,15.5c13.2,10.5,26.8,20.5,40.8,29.8c5.7,3.8,11.9,7.7,18.8,7.5
	c6.5-0.1,12.4-3.9,16.6-8.8c4.2-4.9,6.9-10.9,9.7-16.8c9.9-21.5,19.8-43.3,24.5-66.5c1.5-7.3,2.5-14.8,5.8-21.5
	c2.6-5.2,6.4-9.6,9.9-14.3c8.1-11.1,13.8-23.8,16.7-37.2c1.9-8.8,2.5-18.2-0.6-26.6c-3.1-8.4-10.6-15.6-19.6-16.3
	c-7.1-0.5-14,3.1-18.8,8.4c-4.8,5.3-7.6,12-9.5,18.9c-2.7,9.8-3.8,20.1-3.1,30.3c0.6,8.2,2.2,16.5,0.8,24.6c-1,5.7-3.5,11.1-6,16.4
	c-6.4,13.6-12.9,27.4-22.5,38.9c-3.1,3.8-7.5,7.5-12.3,6.7c-6.7-1.2-8.4-9.6-11.7-15.6c-4-7.3-11.7-11.6-17.7-17.4
	c-8.5-8.2-13.6-19.2-19.7-29.4s-13.9-20.2-25.1-24.1s-26.1,1.1-28.9,12.6"/>
<g class="st10">
	<path d="M97.8,308c-3.6-5.9-6.6-12.2-9-18.7l-0.3-0.9c-1.8-2-3.4-4.2-4.6-6.6c-1.9-4.1-2.9-8.5-3-13c0-0.2,0-0.3,0-0.5
		c-0.6,1.4-1.1,2.8-1.4,4.3c-0.9,4.9,0.6,9.9,2.3,14.5c2.4,6.5,5.4,12.8,9,18.7c5.4,9,12.2,17.6,13.3,27.9c1.6,15.4-10,29-12.9,44.2
		c-2.2,11.6,0.6,24.6-5.6,34.7c-2.5,3.8-5.8,7-9.7,9.2c-2.5,1.6-5.2,2.7-8,3.5c-0.5,0.6-1.1,1.2-1.7,1.7c5.5,1.9,11.6-0.1,16.5-3.2
		c3.9-2.3,7.3-5.4,9.7-9.2c6.2-10.1,3.5-23.1,5.6-34.7c2.9-15.2,14.5-28.8,12.9-44.2C110.1,325.5,103.2,316.9,97.8,308z"/>
	<path d="M197.6,232c-2.2-5.1-6.9-8.8-11.7-11.7c-6.1-3.7-12.8-6.4-19.7-8c4.5,1.6,8.8,3.6,12.8,6c4.8,2.9,9.5,6.5,11.7,11.7
		c2.2,5.2,1.1,12.1-3.7,15c-3.4,2-7.6,1.7-11.6,1.6c-3.4-0.1-6.8,0.1-10.2,0.5c-1.2,0.1-2.4,0.4-3.5,0.9c-1.4,0.9-2.6,2.3-3.3,3.8
		c-1.4,2.7-2.3,5.5-2.8,8.5c-0.5,3.3-0.4,7-2.5,9.6c-2.8,3.6-7.2,3-11.2,3.8c-3.5,0.7-6.8,1.9-9.9,3.8c-6.6,4-11.4,11.3-11.7,19.1
		c-0.1,2.8,0.3,5.6-0.5,8.3c-0.5,1.6-1.2,3-2.2,4.3c1.5,1.6,2.9,3.4,4,5.4c2.1-2.3,4.3-4.7,5.2-7.7c0.8-2.7,0.4-5.5,0.5-8.3
		c0.3-7.8,5-15.1,11.7-19.1c3-1.8,6.4-3.1,9.9-3.8c4-0.7,8.4-0.2,11.2-3.8c2.1-2.6,2-6.3,2.5-9.6c0.4-3,1.4-5.8,2.8-8.5
		c0.7-1.6,1.8-2.9,3.3-3.8c1.1-0.5,2.3-0.9,3.5-0.9c3.4-0.4,6.8-0.6,10.2-0.5c4,0.1,8.2,0.4,11.6-1.6
		C198.7,244.1,199.8,237.1,197.6,232z"/>
</g>
<path class="st5" d="M141,314.6c0,0,10.2,8.8,29.6,3.5C170.6,318,158.6,322.7,141,314.6z"/>
<path class="st5" d="M688.7,166.4c0,1.3-0.3,2.6-1,3.8c-0.6,0.7-1.2,1.2-2,1.5c-6.7,3.3-14.8,2-20.1-3.4c-1.8-1.9-3.2-4.3-5-6.2
	c-1.8-1.9-4.3-3.6-6.9-3.4c-2.2,0.2-4.1,1.6-5.6,3.2c-2,2.1-3.4,4.7-4.2,7.4c-0.6,2-0.9,4.2-2.5,5.5s-3.6,1.2-5.6,1.1
	c-2.5-0.1-5.1-0.2-7.3-1.4c-4.2-2.2-5.6-7.4-7.1-11.8c-2.6-7.5-8.4-21.7-17.5-23.2c-4.3-0.7-9.6,1.6-13,4c-5.1,3.7-8.9,6.1-15.5,6.1
	c-1.6,0-3.1-0.2-4.6-0.7c-3.8-1.5-5.8-5.6-6.4-9.7c-0.2,1.9-0.3,3.8-0.1,5.7c0.4,4.5,2.4,9.3,6.6,11c1.5,0.5,3,0.8,4.6,0.7
	c6.6,0.1,10.4-2.3,15.5-6c3.4-2.5,8.6-4.8,13-4c9,1.5,14.9,15.6,17.5,23.1c1.5,4.5,2.9,9.6,7.1,11.8c2.2,1.2,4.8,1.3,7.3,1.4
	c1.9,0.1,4.1,0.1,5.6-1.1c1.5-1.2,1.9-3.5,2.5-5.5c0.8-2.8,2.2-5.3,4.2-7.4c1.5-1.6,3.5-3,5.6-3.2c2.7-0.2,5.2,1.4,6.9,3.4
	c1.7,2,3.2,4.3,5,6.2c5.3,5.3,13.4,6.7,20.1,3.4c0.8-0.4,1.5-0.9,2-1.5c0.7-1.1,1.1-2.5,1-3.8c0.7-7.3,1-14.6,0.9-21.9
	C689.4,156.4,689,161.4,688.7,166.4z"/>
<path class="st7" d="M88.5,535.2c0,0,1.4-1.5-1.2-2.1v-2.5h1.6c0-6.3-4.4-11.7-10.5-13v-3.1h0.4v-4h-10v4H69v3.1
	c-6.1,1.4-10.4,6.7-10.4,13H60v2.4c0,0-3.3,1.5,0,4.3c3.3,2.8,2.8,4.8,2.8,4.8s-1.4,5.2-4.1,5.9v48.1c0,5.9,4.8,10.7,10.7,10.7
	c0,0,0,0,0,0h8.4c5.9,0,10.7-4.8,10.7-10.7V548c0,0-4.8-3.6-4-5.9C85.6,539.7,87,537.4,88.5,535.2z"/>
</svg>
