<svg height="416pt" viewBox="-10 0 416 416.42667" width="416pt" xmlns="http://www.w3.org/2000/svg"><path d="m.214844 259.414062 68.265625-34.132812-68.265625-34.132812zm0 0" fill="#aff05d"/><path d="m396.160156 259.414062-68.265625-34.132812 68.265625-34.132812zm0 0" fill="#aff05d"/><path d="m307.414062 286.71875-102.402343 47.789062-116.050781-47.789062 9.996093-37.117188c7.296875-27.109374 7.296875-55.667968 0-82.773437l-9.996093-37.121094h218.453124l-9.996093 37.121094c-7.300781 27.105469-7.300781 55.664063 0 82.773437z" fill="#ffd578"/><path d="m307.414062 286.71875-2.886718-6.183594-99.6875 46.519532-107.726563-44.359376 8.433594-31.320312c3.804687-14.132812 5.710937-28.644531 5.710937-43.160156 0-14.511719-1.902343-29.027344-5.710937-43.160156l-7.679687-28.519532h200.636718l-7.679687 28.515625c-3.804688 14.136719-5.710938 28.648438-5.710938 43.164063 0 14.511718 1.902344 29.027344 5.710938 43.160156l9.996093 37.121094 6.59375-1.777344-2.886718-6.183594 2.886718 6.183594 6.589844-1.773438-9.996094-37.121093c-3.492187-12.972657-5.238281-26.289063-5.238281-39.609375 0-13.320313 1.746094-26.640625 5.238281-39.613282l9.996094-37.121093c.550782-2.046875.117188-4.242188-1.171875-5.925781-1.289062-1.683594-3.300781-2.675782-5.417969-2.675782h-218.453124c-2.121094 0-4.128907.992188-5.417969 2.675782-1.292969 1.683593-1.726563 3.878906-1.175781 5.925781l9.996093 37.121093c3.492188 12.972657 5.238281 26.292969 5.238281 39.613282 0 13.320312-1.746093 26.636718-5.238281 39.609375l-9.996093 37.121093c-.894532 3.320313.8125 6.777344 3.992187 8.085938l116.054687 47.789062c1.757813.722657 3.761719.675782 5.484376-.128906l102.402343-47.785156c3.003907-1.402344 4.566407-4.757812 3.703125-7.960938z" fill="#54596e"/><path d="m88.960938 129.707031 9.996093 37.121094c2.152344 8 3.589844 16.136719 4.476563 24.320313h189.507812c.882813-8.183594 2.320313-16.316407 4.476563-24.320313l9.996093-37.121094z" fill="#a1b7ff"/><path d="m82.367188 131.480469 9.996093 37.121093c2.050781 7.617188 3.433594 15.40625 4.285157 23.277344.371093 3.460938 3.304687 6.09375 6.785156 6.09375h189.507812c3.480469 0 6.414063-2.632812 6.785156-6.09375.851563-7.871094 2.234376-15.660156 4.285157-23.277344l9.996093-37.121093c.550782-2.046875.113282-4.242188-1.175781-5.925781-1.289062-1.683594-3.300781-2.675782-5.417969-2.675782h-218.453124c-3.769532 0-6.828126 3.058594-6.828126 6.828125s3.058594 6.828125 6.828126 6.828125h209.542968l-7.679687 28.515625c-2.257813 8.390625-3.753907 16.875-4.671875 25.363281l6.789062.734376v-6.828126h-189.507812v6.828126l6.785156-.734376c-.914062-8.488281-2.414062-16.972656-4.671875-25.359374l-9.996094-37.121094c-.980469-3.640625-4.726562-5.800782-8.367187-4.816406-3.640625.976562-5.796875 4.722656-4.816406 8.363281" fill="#54596e"/><path d="m270.351562 143.359375c31.777344 0 57.542969-31.183594 57.542969-69.65625v-6.597656c0-29.523438-19.769531-53.453125-44.15625-53.453125h-171.105469c-24.382812 0-44.152343 23.929687-44.152343 53.449218v6.601563c0 38.472656 25.761719 69.65625 57.542969 69.65625z" fill="#a1b7ff"/><path d="m270.351562 150.1875c18.183594.007812 34.5-8.976562 45.949219-22.882812 11.488281-13.921876 18.410157-32.839844 18.417969-53.601563v-6.601563c-.007812-16.285156-5.425781-31.152343-14.496094-42.140624-9.027344-10.972657-21.996094-18.144532-36.484375-18.132813h-171.105469c-14.488281-.011719-27.457031 7.160156-36.484374 18.132813-9.066407 10.988281-14.488282 25.855468-14.496094 42.140624v6.601563c.007812 20.761719 6.929687 39.675781 18.417968 53.601563 11.453126 13.90625 27.765626 22.890624 45.953126 22.882812 3.769531 0 6.828124-3.058594 6.828124-6.828125s-3.058593-6.824219-6.828124-6.824219c-13.59375-.011718-26.050782-6.617187-35.425782-17.925781-9.335937-11.289063-15.300781-27.195313-15.289062-44.90625v-6.597656c-.011719-13.234375 4.453125-25.09375 11.367187-33.449219 6.953125-8.371094 16.0625-13.167969 25.957031-13.175781h171.105469c9.898438.011719 19.003907 4.804687 25.957031 13.175781 6.914063 8.355469 11.378907 20.214844 11.371094 33.449219v6.597656c.007813 17.710937-5.953125 33.621094-15.289062 44.910156-9.378906 11.304688-21.835938 17.914063-35.425782 17.921875-3.769531 0-6.828124 3.054688-6.828124 6.828125 0 3.765625 3.054687 6.824219 6.828124 6.824219zm0 0" fill="#54596e"/><path d="m191.359375 238.933594h13.652344v13.652344h-13.652344zm0 0" fill="#54596e"/><path d="m205.011719 197.972656h-13.652344v20.480469c0 3.769531 3.058594 6.828125 6.828125 6.828125s6.824219-3.058594 6.824219-6.828125z" fill="#ddbc76"/><path d="m198.1875 191.148438c-3.769531 0-6.828125 3.054687-6.828125 6.824218h13.652344c0-3.769531-3.054688-6.824218-6.824219-6.824218" fill="#54596e"/><path d="m325.578125 330.308594-18.164063-43.589844h-3.582031c-12.140625 11.769531-54.769531 20.480469-105.644531 20.480469s-93.503906-8.710938-105.648438-20.480469h-3.578124l-18.164063 43.589844c-10.4375 25.046875-6.777344 52.527344-2.316406 79.292968h259.414062c4.457031-26.765624 8.117188-54.246093-2.316406-79.292968zm0 0" fill="#999"/><path d="m325.578125 330.308594 6.300781-2.625-18.164062-43.589844c-1.0625-2.546875-3.539063-4.199219-6.300782-4.199219h-3.582031c-1.769531 0-3.480469.691407-4.75 1.925781-1.890625 1.886719-6.148437 4.433594-12.152343 6.683594-9.011719 3.4375-21.871094 6.460938-37.09375 8.558594-15.230469 2.101562-32.863282 3.3125-51.648438 3.3125-25.042969 0-48.050781-2.15625-66.03125-5.699219-8.984375-1.765625-16.710938-3.886719-22.710938-6.171875-6.003906-2.253906-10.261718-4.800781-12.152343-6.6875-1.273438-1.230468-2.980469-1.925781-4.753907-1.925781h-3.578124c-2.761719 0-5.242188 1.652344-6.300782 4.199219l-18.164062 43.59375c-5.425782 13.011718-7.285156 26.496094-7.28125 39.855468.003906 14.605469 2.195312 29.125 4.53125 43.179688.550781 3.296875 3.394531 5.707031 6.734375 5.707031h259.414062c3.335938 0 6.183594-2.410156 6.734375-5.703125 2.335938-14.050781 4.523438-28.574218 4.53125-43.179687 0-13.359375-1.859375-26.84375-7.28125-39.859375l-6.300781 2.625-6.300781 2.628906c4.550781 10.925781 6.226562 22.488281 6.230468 34.605469.003907 13.222656-2.027343 27.042969-4.347656 40.9375l6.734375 1.121093v-6.828124h-259.414062v6.828124l6.734375-1.125c-2.320313-13.894531-4.351563-27.710937-4.347656-40.9375.003906-12.117187 1.679687-23.679687 6.230468-34.605468l18.164063-43.589844-6.300781-2.625v6.828125h3.578124v-6.828125l-4.75 4.902344c4.179688 4 9.804688 6.953125 16.800782 9.644531 10.484375 3.980469 24.132812 7.109375 40.082031 9.320313 15.9375 2.199218 34.140625 3.441406 53.515625 3.441406 25.832031-.003906 49.578125-2.199219 68.667969-5.957032 9.550781-1.878906 17.9375-4.148437 24.929687-6.804687 6.996094-2.691406 12.621094-5.644531 16.800782-9.644531l-4.753907-4.902344v6.828125h3.582031v-6.828125l-6.300781 2.628906 18.164063 43.589844zm0 0" fill="#54596e"/><path d="m151.546875 386.082031 13.652344 20.476563c2.089843 3.140625 6.332031 3.988281 9.46875 1.894531 3.136719-2.089844 3.984375-6.328125 1.890625-9.46875l-13.652344-20.476563c-2.089844-3.136718-6.328125-3.988281-9.464844-1.894531-3.140625 2.089844-3.988281 6.332031-1.894531 9.46875" fill="#54596e"/><path d="m233.46875 378.507812-13.65625 20.476563c-2.089844 3.140625-1.242188 7.378906 1.894531 9.46875s7.375 1.246094 9.464844-1.894531l13.65625-20.476563c2.089844-3.136719 1.242187-7.378906-1.894531-9.46875-3.136719-2.09375-7.375-1.242187-9.464844 1.894531" fill="#54596e"/><g fill="#92a4e2"><path d="m184.535156 143.359375h-27.308594c0 3.769531 3.058594 6.828125 6.828126 6.828125 7.683593-.007812 14.777343-2.542969 20.480468-6.828125"/><path d="m191.144531 112.617188c-3.394531 0-6.339843 2.53125-6.765625 5.988281-1.246094 10.070312-9.867187 17.929687-20.296875 17.929687-.011719 0-.019531 0-.027343 0-3.769532 0-6.828126 3.054688-6.828126 6.824219h27.308594c7.222656-5.421875 12.222656-13.648437 13.390625-23.078125.464844-3.738281-2.191406-7.148438-5.933593-7.613281-.285157-.035157-.566407-.050781-.847657-.050781"/><path d="m245.765625 143.359375h-27.308594c5.703125 4.28125 12.792969 6.820313 20.480469 6.828125h.003906c3.769532 0 6.824219-3.058594 6.824219-6.828125"/><path d="m211.847656 112.617188c-.277344 0-.5625.015624-.847656.050781-3.742188.464843-6.398438 3.875-5.933594 7.613281 1.167969 9.433594 6.167969 17.65625 13.390625 23.078125h27.308594c0-3.769531-3.054687-6.824219-6.824219-6.824219h-.003906c-.007812 0-.019531 0-.027344 0-10.433594 0-19.046875-7.859375-20.292968-17.929687-.429688-3.457031-3.371094-5.988281-6.769532-5.988281"/></g><path d="m219.289062 34.132812h-35.378906c-10.964844 0-19.855468-8.890624-19.855468-19.855468v-7.449219h75.09375v7.449219c0 10.964844-8.890626 19.855468-19.859376 19.855468zm0 0" fill="#ffd578"/><path d="m219.289062 34.132812v-6.824218h-35.378906c-7.191406-.015625-13.015625-5.839844-13.03125-13.03125v-.625h61.441406v.625c-.015624 7.191406-5.835937 13.015625-13.03125 13.03125v13.652344c14.738282-.007813 26.679688-11.945313 26.683594-26.683594v-7.449219c0-1.796875-.726562-3.558594-2-4.828125-1.269531-1.269531-3.027344-2-4.824218-2h-75.09375c-1.796876 0-3.558594.730469-4.828126 2-1.269531 1.269531-2 3.03125-2 4.828125v7.449219c.003907 14.738281 11.941407 26.675781 26.683594 26.683594h35.378906zm0 0" fill="#54596e"/></svg>