<?xml version="1.0" encoding="utf-8"?>
<!-- Generator: Adobe Illustrator 24.0.0, SVG Export Plug-In . SVG Version: 6.00 Build 0)  -->
<svg version="1.1" id="Layer_1" xmlns="http://www.w3.org/2000/svg" xmlns:xlink="http://www.w3.org/1999/xlink" x="0px" y="0px"
	 viewBox="0 0 512 512" style="enable-background:new 0 0 512 512;" xml:space="preserve">
<style type="text/css">
	.st0{fill:#FEDFC5;}
	.st1{fill:#FECBAA;}
	.st2{fill:#7F7CE8;}
	.st3{fill:#4F7693;}
	.st4{fill:#6666D3;}
	.st5{fill:#FFD578;}
	.st6{fill:#E4F4FF;}
	.st7{fill:#BDDFF4;}
	.st8{fill:#FF5A5A;}
	.st9{fill:#43657A;}
	.st10{fill:#A1B7FF;}
	.st11{fill:#87A0F2;}
	.st12{fill:#54596E;}
</style>
<g>
	<path class="st0" d="M218.7,161.9L203,142.3c-8-10-6.3-24.5,3.6-32.5l4.2-3.3c10-8,24.5-6.3,32.5,3.6l15.6,19.6
		c8,10,6.3,24.5-3.6,32.5l-4.2,3.3C241.2,173.5,226.6,171.9,218.7,161.9z"/>
	<path class="st1" d="M258.9,129.7l-15.6-19.6c-6.3-7.9-16.7-10.5-25.7-7.4c4,1.4,7.6,3.8,10.5,7.4l15.6,19.6
		c8,10,6.3,24.5-3.6,32.5l-4.2,3.3c-2.1,1.7-4.4,2.9-6.8,3.7c7.2,2.5,15.6,1.4,22-3.7l4.2-3.3C265.3,154.3,266.9,139.7,258.9,129.7z
		"/>
	<path class="st2" d="M482.7,384.6h-36.1l-10.9-29.5l-17-45.9c-1.1-3.1-3.9-5.3-7.1-5.7l-46.5-6.3l-10.5-1.4l-3,22L341,396h-45.6
		V295.1l16.7-18l49-31.1l0.1,0l0,0v0l32.5,7.6l54.5,12.7c3.2,0.8,5.8,3.3,6.6,6.5L482.7,384.6z"/>
	<path class="st0" d="M339.1,154.1l26.8,8.1l54.8-30.4c3.7-2,8.2-1.3,11.1,1.7l4.3,4.6c3.5,3.7,3.3,9.6-0.5,13L384,198.2l-55-16.7
		L339.1,154.1z"/>
	<path class="st1" d="M436.1,138.1l-4.3-4.6c-2.9-3-7.4-3.7-11.1-1.7l-4.6,2.5l3.6,3.8c3.5,3.7,3.3,9.6-0.5,13l-47.5,43.4l12.4,3.7
		l51.6-47.1C439.4,147.6,439.6,141.8,436.1,138.1z"/>
	<path class="st3" d="M504.5,355.7v55.6h-24v-37.8l3.1-3.7l14.8-17.4C500.7,349.7,504.5,351.8,504.5,355.7z"/>
	<path class="st4" d="M393.8,253.6l-28.7,43.6l-10.5-1.4l-3,22L300.1,396h-4.7V295.1l16.7-18l49-31.1l0.1,0l0,0v0L393.8,253.6z"/>
	<path class="st5" d="M93.6,352h10.8c4.1,0,8.2-1.4,11.7-4l13.1-9.8c4.2-3.1,9.1-4.5,14-3.9l85.9,11v66.1H95.7l-31.5-29.4L93.6,352z
		"/>
	<path class="st6" d="M80,379.6h-51c-11.8,0-21.4,9.6-21.4,21.4v5.8c0,2.5,2,4.4,4.4,4.4h85c2.5,0,4.4-2,4.4-4.4V401
		C101.4,389.2,91.8,379.6,80,379.6z"/>
	<path class="st7" d="M80,379.6h-51c-11.8,0-21.4,9.6-21.4,21.4v5.8c0,1.2,0.5,2.2,1.2,3c2.9-8.4,10.9-14.4,20.2-14.4h51
		c9.4,0,17.3,6,20.2,14.4c0.7-0.8,1.2-1.8,1.2-3V401C101.4,389.2,91.8,379.6,80,379.6z"/>
	<path class="st0" d="M68.8,379.6H42c-13.7,0-24.8-11.1-24.8-24.8v-5.7c0-13.7,11.1-24.8,24.8-24.8h26.9c13.7,0,24.8,11.1,24.8,24.8
		v5.7C93.6,368.5,82.5,379.6,68.8,379.6z"/>
	<path class="st1" d="M68.8,324.3H50.5c13.7,0,24.8,11.1,24.8,24.8v5.7c0,13.7-11.1,24.8-24.8,24.8h18.4c13.7,0,24.8-11.1,24.8-24.8
		v-5.7C93.6,335.4,82.5,324.3,68.8,324.3z"/>
	<path class="st0" d="M363.6,251.8l-60,38.1l-5.9,3.7l-4.3-6.6l-35.9-55.8c-1.4-2.2-4.8-1-4.6,1.6l1.8,21.6l4.9,57.9l-22.4,24.1
		l-9.2-74.8l-7-56.8c-1.2-10.1,3-20.1,11-26.3l41.8-32.2c6.9-5.3,16-7.1,24.5-4.8l40.5,12.5L329,181.5l-16.1-4.8
		c-2.8-0.5-4.7,2.7-3,4.9L363.6,251.8z"/>
	<path class="st8" d="M363.6,251.8l-60,38.1l-10.1-2.9l-35.9-55.8c-1.4-2.2-4.8-1-4.6,1.6l1.8,21.6l-26.6,7.3l0,0l-7-56.8
		c-1.2-10.1,3-20.1,11-26.3l41.8-32.2c6.9-5.3,16-7.1,24.5-4.8l40.5,12.5L329,181.5l-16.1-4.8c-2.8-0.5-4.7,2.7-3,4.9L363.6,251.8z"
		/>
	<path class="st9" d="M504.5,395.5v15.8h-24v-37.8l3.1-3.7L504.5,395.5z"/>
	<path class="st10" d="M480.5,373.6v37.8H229.2v-66.2l23.9,2.7l73.8,8.3L480.5,373.6z"/>
	<path class="st3" d="M446.3,411.3l0.4-26.7h36.1l21.8,26.7H446.3z"/>
	<path class="st11" d="M326.8,356.2l-36.3,55.1h-55.7v-43.8l18.2-19.6L326.8,356.2z"/>
	<path class="st10" d="M229.2,345.2v54.4h48.8l138.3-210.2L394.4,167L229.2,345.2z"/>
	<path class="st5" d="M135.7,375.8l38.6,3.8v31.7h-38.6"/>
	<path class="st3" d="M394.4,167l21.9,22.3l15.8-20.2L400.6,136c-1.8-1.9-5-0.7-5.1,1.9L394.4,167z"/>
	<path class="st0" d="M174.3,379.6l129.6,13.3c4.1,0.4,7.7,3.5,9.5,8.2l3.9,10.3h-143V379.6z"/>
	<path class="st2" d="M440.9,369.2l36.6-5.5l5.2,20.9h-36.1L440.9,369.2z"/>
	<path class="st12" d="M512,355.7c0-5.2-3-9.7-7.5-11.4c-4.2-1.5-8.8-0.3-11.8,3.3l-8.8,10.4l-21.6-87c-1.5-6-6.1-10.6-12.2-12
		l-61.2-14.3l33.6-51l15.6-20c2.3-2.9,2.1-7.1-0.5-9.8l-2.2-2.3l5.5-5c3.3-3,5.2-7.2,5.4-11.7s-1.4-8.8-4.5-12.1l-4.4-4.6
		c-5.2-5.5-13.5-6.8-20.2-3.1l-10.7,5.9l-0.3-0.3c-2.9-3.1-7.3-4.1-11.2-2.6c-3.9,1.5-6.6,5.1-6.8,9.3l-0.2,3.8L365,154.1l-23.7-7.2
		c0,0,0,0,0,0l-40.5-12.5c-0.1,0-0.1,0-0.2-0.1c-10-2.8-20.9-1-29.4,4.9c-0.8-5.1-3-10-6.3-14.2l-15.6-19.6
		c-10.5-13.2-29.8-15.3-43-4.8L202,104c-6.4,5.1-10.4,12.4-11.3,20.5c-0.9,8.1,1.4,16.1,6.5,22.5l15.6,19.6c3.2,4,7.2,6.9,11.5,8.9
		c-7.9,7.8-11.9,19-10.5,30.2l15.7,128.1l-3.2,3.5l-19-2.4c-4.1-0.5-7.9,2.4-8.4,6.5s2.4,7.9,6.5,8.4l16.2,2.1v25.1l-46.5-4.8
		c0,0,0,0,0,0s0,0,0,0l-38.6-3.8c-4.1-0.4-7.8,2.6-8.2,6.7s2.6,7.8,6.7,8.2l31.9,3.1v17.4h-31.1c0,0-0.1,0-0.1,0h-26.7V401
		c0-11-6.2-20.6-15.3-25.5c3.8-4.5,6.3-10,7.2-16.1h3.6c5.7,0,11.3-1.9,16.2-5.5l13.1-9.8c2.7-2,5.6-2.8,8.6-2.5l31.1,4
		c4.1,0.5,7.9-2.4,8.4-6.5c0.5-4.1-2.4-7.9-6.5-8.4l-31.1-4c-6.8-0.9-13.7,1-19.4,5.3l-13.1,9.8c-2.2,1.7-4.7,2.5-7.2,2.5h-3.6
		c-2.3-15.6-15.7-27.6-31.9-27.6H42c-17.8,0-32.3,14.5-32.3,32.3v5.7c0,7.6,2.6,14.5,7,20C6.8,379.5,0,389.5,0,401v5.8
		c0,6.6,5.4,11.9,11.9,11.9l217.2,0h275.3c4.1,0,7.5-3.4,7.5-7.5V355.7z M497,365.6v24.7l-7.4-9.1l-1.3-5.2L497,365.6z M322.5,403.8
		l-2.1-5.5c-2.8-7.3-8.8-12.2-15.7-12.9l-8-0.8l14.8-22.6l123.8,14l3.7,9.9l-0.2,17.9H322.5z M181.8,387.9l121.3,12.4
		c1,0.1,2.4,1.2,3.2,3.4l0,0.1H181.8V387.9z M320.8,348l24-36.5l-5.2,38.6L320.8,348z M454,392.1h25.1l9.5,11.7h-34.8L454,392.1z
		 M446.6,273.6c0.5,0.1,0.9,0.5,1,1l25,100.7c0,0.1,0.1,0.2,0.1,0.4l0.4,1.5h-21.3l-3.9-10.6c0-0.1-0.1-0.2-0.1-0.3l-22-59.5
		c-2.1-5.7-7.1-9.7-13.1-10.5l-22.5-3.1c-4.1-0.6-7.9,2.3-8.4,6.4s2.3,7.9,6.4,8.4l22.5,3.1c0.5,0.1,0.9,0.4,1.1,0.9l17.9,48.4
		l-75.1-8.5l9.4-69.3l16.1-24.4L446.6,273.6z M403.5,149.9l15.5,16.4c0,0,0,0,0,0c0,0,0,0,0.1,0.1l3.1,3.2l-6.5,8.4L402,164.1
		l0.6-13.7L403.5,149.9z M424.3,138.3c0.7-0.4,1.5-0.2,2,0.3l4.3,4.6c0.4,0.4,0.5,0.9,0.4,1.2c0,0.3-0.1,0.8-0.5,1.1l-5.7,5.2
		l-7.9-8.4L424.3,138.3z M369.5,168.7l17.7-9.8l-0.2,5l-19.8,21.3l-28.4-8.6l2.6-7.1l2.3-6.2l20,6.1
		C365.6,170,367.7,169.7,369.5,168.7z M342.5,211.9l-18.4-24l2.7,0.8l29,8.8L342.5,211.9z M296.4,148.8l32.9,10.1l-4.1,11.2
		l-0.8,2.3l-9.4-2.8c-0.3-0.1-0.6-0.1-0.9-0.2c-4.3-0.7-8.6,1.2-10.9,5s-2,8.4,0.7,11.9l28.2,36.8l-41.8,45.1l-26.4-41.1
		c-2.5-3.9-7.3-5.5-11.6-4c-4.4,1.5-7.1,5.7-6.7,10.3l1.3,15.4l-12.3,3.3l-5.9-48.2c-0.9-7.4,2.2-14.9,8.1-19.4l11-8.4
		c2.8-1.1,5.5-2.6,8-4.6l4.2-3.3c2.1-1.7,3.9-3.6,5.5-5.7l13.2-10.1C283.7,148.4,290.3,147.1,296.4,148.8z M265.8,294.6l-3.4-40.8
		c0,0,0,0,0,0l-0.1-1.7l17.6,27.4L265.8,294.6z M242.9,319.4l-6.4-52.3l11.7-3.2l3.8,45.6L242.9,319.4z M208.9,137.7
		c-2.6-3.3-3.8-7.3-3.3-11.5s2.5-7.9,5.8-10.5l4.2-3.3c6.7-5.4,16.6-4.3,21.9,2.4l15.6,19.6c2.6,3.3,3.8,7.3,3.3,11.5
		c-0.2,2.2-0.9,4.3-2,6.1l-13.7,10.6c-5.8,1.5-12.1-0.4-16.1-5.4L208.9,137.7z M236.7,348.1L236.7,348.1l14.8-16l13.8-14.8
		c0,0,0,0,0-0.1l129.2-139.4l12.1,12.4l-56.2,85.4c0,0-0.1,0.1-0.1,0.1c0,0,0,0,0,0.1c0,0-0.1,0.1-0.1,0.1l-70.3,106.9l-43.3-4.4
		V348.1z M24.7,349.1c0-9.5,7.8-17.3,17.3-17.3h26.9c9.5,0,17.3,7.8,17.3,17.3v5.7c0,9.5-7.8,17.3-17.3,17.3H42
		c-9.5,0-17.3-7.8-17.3-17.3V349.1z M15,401c0-7.7,6.2-13.9,13.9-13.9h51c7.7,0,13.9,6.3,13.9,13.9v2.8H15V401z"/>
</g>
</svg>
