<?xml version="1.0" encoding="utf-8"?>
<!-- Generator: Adobe Illustrator 24.0.0, SVG Export Plug-In . SVG Version: 6.00 Build 0)  -->
<svg version="1.1" id="Layer_1" xmlns="http://www.w3.org/2000/svg" xmlns:xlink="http://www.w3.org/1999/xlink" x="0px" y="0px"
	 viewBox="0 0 512 512" style="enable-background:new 0 0 512 512;" xml:space="preserve">
<style type="text/css">
	.st0{fill:#ABAEB1;}
	.st1{fill:#FFD578;}
	.st2{fill:#FF5A5A;}
	.st3{fill:#ED3C8F;}
	.st4{fill:#E4E5E8;}
	.st5{fill:#54596E;}
</style>
<g>
	<path class="st0" d="M79.7,304.3c0,0.1,0,0.2,0,0.3c-0.4,12.9,8.8,24.1,21.6,26.4c14.9,2.7,27.2,7.7,34.5,17.1
		c18,23,14,98.6,14,98.6h145.9c0,0-4-75.6,14-98.6c7.3-9.4,19.6-14.4,34.5-17.1c12.8-2.3,22-13.5,21.5-26.4c0-0.1,0-0.2,0-0.3
		c-3.5-98.9-84.5-104.7-84.5-104.7h-0.4c-13.2,15.2-29.8,28.8-50,39.8c-5.1,2.7-11.2,2.7-16.3,0c-20.2-10.9-36.9-24.6-50-39.8h-0.4
		C164.2,199.6,83.2,205.4,79.7,304.3z"/>
	<path class="st1" d="M355.1,446.6H90.5c-14.2,0-25.7,11.5-25.7,25.7V502h315.9v-29.7C380.8,458.1,369.3,446.6,355.1,446.6z"/>
	<path class="st1" d="M413.4,80.6c-2.8-8.3-11.9-12.8-20.2-10s-12.8,11.9-10,20.2l5.3,15.6l30.1-10.2L413.4,80.6z"/>
	<path class="st1" d="M439.6,256.7c2.8,8.3,11.9,12.8,20.2,10c8.3-2.8,12.8-11.9,10-20.2l-25.2-74.2l-30.1,10.2L439.6,256.7z"/>
	<path class="st2" d="M461,92l-0.6-0.7c-3.5-4.4-9.4-6.1-14.7-4.3l-27,9.2l-30.1,10.2l-27,9.2c-5.3,1.8-8.9,6.7-9.1,12.3l0,0.9
		c-0.5,21.3,6.6,42.2,20.2,58.6c3.5,4.3,9.4,6,14.6,4.2l27.1-9.2l30.1-10.2l27.1-9.2c5.3-1.8,8.9-6.7,9.1-12.2
		C481.4,129.5,474.4,108.6,461,92z"/>
	<path class="st3" d="M84.7,146.1l12.4-31.7c1.3-3.3-0.3-7.1-3.7-8.4l-21.3-8.4c-3.3-1.3-7.1,0.3-8.4,3.7L51.3,133
		c-3,7.7,0.8,16.3,8.4,19.3l5.6,2.2C73.1,157.5,81.7,153.8,84.7,146.1z"/>
	<path class="st4" d="M214.6,239.4c5.1,2.7,11.2,2.7,16.3,0c20.2-10.9,36.9-24.6,50-39.8C346.8,123.6,325,9.5,222.8,10
		c-102.2-0.5-124,113.6-58.1,189.6C177.8,214.8,194.4,228.4,214.6,239.4z"/>
	<path class="st5" d="M355.1,436.6h-49.7c-0.6-28.4,2-69.3,12.2-82.4c5.1-6.5,14.4-10.9,28.4-13.4c17.5-3.1,30.3-18.8,29.8-36.5
		c0-0.2,0-0.4,0-0.6c-1.1-30.5-10.3-72.1-48-97.2c-10.5-7-20.8-11.1-29-13.5c30.3-42.7,38.3-95.9,19.6-136.7
		C301.9,20.5,267.3,0,223.5,0c-0.4,0-0.9,0-1.3,0c-44,0-78.6,20.5-95,56.3c-18.7,40.8-10.7,94,19.6,136.7c-8.2,2.4-18.6,6.5-29,13.5
		c-37.7,25.2-46.9,66.8-48,97.4c0,0.1,0,0.2,0,0.3c-0.6,17.7,12.2,33.4,29.8,36.6c14.1,2.5,23.3,6.9,28.4,13.4
		c10.2,13,12.8,54,12.2,82.4H90.5c-19.7,0-35.7,16-35.7,35.7V502c0,5.5,4.5,10,10,10h315.9c5.5,0,10-4.5,10-10v-29.7
		C390.8,452.6,374.7,436.6,355.1,436.6z M145.4,64.6C158.6,35.8,185.8,20,222.3,20h1.1c36.3,0,63.6,15.8,76.8,44.6
		c17.5,38.1,6.7,89.7-26.8,128.4c0,0,0,0,0,0c-13,15-28.8,27.6-47.2,37.5c-2.1,1.1-4.6,1.1-6.7,0c-18.3-9.9-34.2-22.5-47.2-37.5
		c0,0,0,0,0,0l0,0C138.6,154.3,127.9,102.7,145.4,64.6z M370.8,492H74.8v-19.7c0-8.7,7-15.7,15.7-15.7h59.1h0.2h0.2h32.7
		c5.5,0,10-4.5,10-10s-4.5-10-10-10h-22.6c0.5-22.9-0.4-74.2-16.5-94.7c-8.2-10.5-21.5-17.3-40.7-20.7c-7.9-1.4-13.6-8.4-13.3-16.2
		c0-0.1,0-0.2,0-0.3c2.7-76.7,55.3-91.6,70.9-94.4c13.9,15.1,30.4,27.8,49.2,38c4,2.2,8.5,3.3,12.9,3.3s8.9-1.1,12.9-3.3
		c18.8-10.2,35.4-22.9,49.2-38c6,1.1,17.3,3.9,29.1,11.2c-14.6,7.3-22.6,21-22.6,38.6v0.1c0,8.6-3.7,14.6-11.7,18.6
		c-4.9,2.5-6.9,8.5-4.4,13.4c1.8,3.5,5.3,5.5,8.9,5.5c1.5,0,3.1-0.3,4.5-1.1c11.4-5.8,18.7-14.6,21.5-25.8c3.4,0.7,7.2,1.9,9.8,4.2
		c1.6,1.4,3.7,3.9,3.9,9.5c0.2,5.4,4.6,9.6,10,9.6c0.1,0,0.3,0,0.4,0c5.5-0.2,9.8-4.9,9.6-10.4c-0.4-9.6-4-17.8-10.6-23.7
		c-6.3-5.6-14.1-8.1-20.5-9.2c1.7-5,4.9-8.8,9.8-11.3c3.4-1.7,6.8-2.6,9.4-3c12.5,14.1,22.7,35.6,23.9,68.3c0,0.1,0,0.1,0,0.2v0.1
		c0.3,7.9-5.4,14.8-13.3,16.2c-19.1,3.4-32.4,10.2-40.7,20.7c-16,20.5-16.9,71.9-16.5,94.7h-22.6c-5.5,0-10,4.5-10,10s4.5,10,10,10
		h32.7c0.1,0,0.2,0,0.3,0c0.1,0,0.2,0,0.3,0h59c8.7,0,15.7,7,15.7,15.7V492z"/>
	<path class="st5" d="M468.7,85.7l-0.6-0.7c-6.1-7.6-16.5-10.6-25.7-7.4L425,83.5l-2.1-6.1c-3.6-10.5-13.4-17.6-24.5-17.6
		c-2.8,0-5.6,0.5-8.3,1.4c-13.5,4.6-20.8,19.3-16.2,32.9l2.1,6.1l-17.5,5.9c-9.2,3.1-15.6,11.8-15.9,21.6l0,0.9c0,0.8,0,1.7,0,2.5
		c0,22.8,8,45.1,22.5,62.7c4.5,5.5,11.2,8.5,18.1,8.5c2.5,0,5-0.4,7.5-1.2l17.6-6l22,64.8c2.2,6.6,6.9,11.9,13.1,14.9
		c3.6,1.8,7.5,2.7,11.4,2.7c2.8,0,5.6-0.5,8.4-1.4c6.6-2.2,11.8-6.9,14.9-13.1c3.1-6.2,3.5-13.2,1.3-19.8l-22-64.7l17.6-6
		c4.5-1.5,8.4-4.4,11.2-8.2c2.8-3.8,4.4-8.4,4.6-13.1c0,0,0,0,0,0C491.5,127.5,483.7,104.2,468.7,85.7z M392.8,87.6
		c-1-3.1,0.6-6.4,3.7-7.5c0.6-0.2,1.3-0.3,1.9-0.3c2.5,0,4.8,1.6,5.6,4l2.1,6.1l-6.1,2.1l-5.1,1.7L392.8,87.6z M460.2,249.7
		c0.5,1.5,0.4,3.1-0.3,4.5c-0.7,1.4-1.9,2.5-3.4,3c0,0,0,0,0,0c-1.5,0.5-3.1,0.4-4.5-0.3c-1.4-0.7-2.5-1.9-3-3.4l-22-64.8l3.5-1.2
		l7.6-2.6L460.2,249.7z M470.7,150.5c0,0.7-0.3,1.4-0.7,1.9c-0.4,0.6-1,1-1.6,1.2l-26.8,9.1c-0.1,0-0.2,0.1-0.2,0.1l-15.8,5.4
		l-41.4,14c-1.3,0.4-2.8,0-3.7-1.1c-11.6-14.1-17.9-31.8-17.9-50c0-0.7,0-1.3,0-2l0-0.9c0-1.4,0.9-2.7,2.3-3.1l26.8-9.1
		c0.1,0,0.1,0,0.2-0.1l17.5-5.9l39.6-13.4c0.4-0.1,0.7-0.2,1.1-0.2c1,0,2,0.4,2.6,1.3c0,0,0,0.1,0.1,0.1l0.5,0.7
		C465.1,113,471.3,131.6,470.7,150.5z"/>
	<path class="st5" d="M70.8,165.5c9.9,0,19.4-6,23.2-15.8l12.4-31.7c3.3-8.5-0.9-18.1-9.3-21.4l-21.3-8.4
		c-8.5-3.3-18.1,0.9-21.4,9.3L42,129.3c-4.1,10.5-0.6,22.2,8,28.8l-27.3,69.5c-2,5.1,0.5,10.9,5.7,13c1.2,0.5,2.4,0.7,3.7,0.7
		c4,0,7.8-2.4,9.3-6.3l27.3-69.5C69.3,165.5,70.1,165.5,70.8,165.5z M68.6,106.9C68.6,106.9,68.6,106.9,68.6,106.9L68.6,106.9z
		 M60.6,136.6l11.2-28.4l14.8,5.8l-11.2,28.4c-1,2.5-3.8,3.8-6.4,2.8l-5.6-2.2C60.9,142,59.7,139.2,60.6,136.6z"/>
	<path class="st5" d="M220,178.7h12.3c5.5,0,10-4.5,10-10c0-5.5-4.5-10-10-10h-8.6l3-30.9c0.5-5.5-3.5-10.4-9-10.9
		c-5.5-0.5-10.4,3.5-10.9,9l-3.4,34.5c-0.5,4.7,1.1,9.4,4.3,12.9C210.8,176.7,215.3,178.7,220,178.7z"/>
	<path class="st5" d="M222.8,436.6c-5.5,0-10,4.5-10,10s4.5,10,10,10h0c5.5,0,10-4.5,10-10S228.3,436.6,222.8,436.6z"/>
</g>
</svg>
